<svg xmlns="http://www.w3.org/2000/svg" viewBox="0 0 60 60"><defs><style>.cls-1{fill:#fff;}</style></defs><title>Footer_Contacts_Call</title><g id="Слой_2" data-name="Слой 2"><g id="Слой_1-2" data-name="Слой 1"><path class="cls-1" d="M21.66,19.14a1.4,1.4,0,0,0,.29,0c1-.16,1.43.37,1.76,1.18.59,1.47,1.18,2.93,1.84,4.37a1.83,1.83,0,0,1-.25,2c-.41.54-.86,1.06-1.3,1.57a.92.92,0,0,0-.14,1.3,17.22,17.22,0,0,0,8.87,7.54A.93.93,0,0,0,34,36.77c.62-.74,1.23-1.5,1.84-2.26s.82-.76,1.57-.41c1.71.78,3.41,1.61,5.11,2.41a.93.93,0,0,1,.53,1,5,5,0,0,1-3.21,4.92,6.28,6.28,0,0,1-4.77.44c-2-.69-4-1.34-5.89-2.19a18.62,18.62,0,0,1-5.63-4.18,29.46,29.46,0,0,1-5.59-7.66,7.84,7.84,0,0,1-.43-6.17,7.1,7.1,0,0,1,2.14-3A2.52,2.52,0,0,1,21.66,19.14Z"/><path class="cls-1" d="M30,1A29,29,0,1,1,1,30,29,29,0,0,1,30,1m0-1A30,30,0,1,0,60,30,30,30,0,0,0,30,0Z"/></g></g></svg>