<svg xmlns="http://www.w3.org/2000/svg" xmlns:xlink="http://www.w3.org/1999/xlink" viewBox="0 0 40 39"><defs><style>.cls-1{fill:url(#Безымянный_градиент_20);}.cls-2{fill:#fff;}</style><linearGradient id="Безымянный_градиент_20" x1="5.86" y1="5.86" x2="33.68" y2="33.68" gradientUnits="userSpaceOnUse"><stop offset="0" stop-color="#5541d6"/><stop offset="0.28" stop-color="#bf2899"/><stop offset="0.67" stop-color="#f2223c"/><stop offset="1" stop-color="#fec053"/></linearGradient></defs><title>Footer_Contacts_Instagram_Active</title><g id="Слой_2" data-name="Слой 2"><g id="Слой_1-2" data-name="Слой 1"><path class="cls-1" d="M40,20c0,11.05-9.95,19-21,19S0,31.05,0,20a20,20,0,0,1,40,0Z"/><path class="cls-2" d="M27.9,14.11a1.43,1.43,0,0,1-1.42,1.43A1.45,1.45,0,0,1,25,14.1a1.43,1.43,0,0,1,1.44-1.43A1.4,1.4,0,0,1,27.9,14.11Z"/><path class="cls-2" d="M27,11a2,2,0,0,1,2,2V27a2,2,0,0,1-2,2H13a2,2,0,0,1-2-2V13a2,2,0,0,1,2-2H27m0-2H13a4,4,0,0,0-4,4V27a4,4,0,0,0,4,4H27a4,4,0,0,0,4-4V13a4,4,0,0,0-4-4Z"/><path class="cls-2" d="M20,16a4,4,0,1,1-4,4,4,4,0,0,1,4-4m0-2a6,6,0,1,0,6,6,6,6,0,0,0-6-6Z"/></g></g></svg>