<svg xmlns="http://www.w3.org/2000/svg" viewBox="0 0 40 40"><defs><style>.cls-1{fill:#4a76a8;}.cls-2{fill:#fff;}</style></defs><title>Footer_Contacts_VK_Active</title><g id="Слой_2" data-name="Слой 2"><g id="Слой_1-2" data-name="Слой 1"><circle class="cls-1" cx="20" cy="20" r="20"/><path class="cls-2" d="M31,14.75v.33c-.1.25-.18.51-.29.75a15.87,15.87,0,0,1-1.6,2.45c-.69.93-1.39,1.86-2.05,2.82a.21.21,0,0,0,0,.25c.85.91,1.77,1.75,2.62,2.66A4.31,4.31,0,0,1,31,26.07v.07a.78.78,0,0,1-.83.63l-1.54,0c-.64,0-1.28.05-1.92,0A2.56,2.56,0,0,1,25,26c-.45-.44-.86-.92-1.28-1.38a3.4,3.4,0,0,0-1-.81.52.52,0,0,0-.6.07,1.49,1.49,0,0,0-.54.91c-.1.58-.11,1.18-.18,1.76a.16.16,0,0,1-.13.13c-1.05.18-2.14,0-3.19.21a1.13,1.13,0,0,1-.91-.2,17.56,17.56,0,0,1-3.58-2.53A25.85,25.85,0,0,1,11.85,22q-.91-1.32-1.71-2.73c-.56-1-1.05-2-1.55-3C8.38,15.87,8.2,15.44,8,15v-.33a.78.78,0,0,1,.71-.33l3.23,0a1,1,0,0,1,.93.63c.07.18.15.36.23.54.47.92.92,1.85,1.4,2.77a5.22,5.22,0,0,0,1.08,1.51,2,2,0,0,0,.6.38.43.43,0,0,0,.52-.21A2.81,2.81,0,0,0,17,18.85,9.79,9.79,0,0,0,17,16a1.32,1.32,0,0,0-.48-1,3.22,3.22,0,0,0-.69-.28c-.17-.06-.21-.13-.08-.25a2.22,2.22,0,0,1,.64-.46,3.61,3.61,0,0,1,1-.18,13.14,13.14,0,0,1,1.54-.05c.58,0,1.17.06,1.75.13a.81.81,0,0,1,.77.7,5.58,5.58,0,0,1,.09.81c0,1.12-.06,2.23-.07,3.35a3.09,3.09,0,0,0,.15.95.5.5,0,0,0,.89.23,6,6,0,0,0,.51-.5,16,16,0,0,0,2-3.21c.21-.45.4-.91.59-1.36a.7.7,0,0,1,.7-.5h1.63c.75,0,1.5,0,2.26,0C30.46,14.33,30.83,14.36,31,14.75Z"/></g></g></svg>