<svg xmlns="http://www.w3.org/2000/svg" xmlns:xlink="http://www.w3.org/1999/xlink" viewBox="0 0 40 40"><defs><style>.cls-1{fill:url(#Безымянный_градиент_27);}.cls-2{fill:#fff;}</style><linearGradient id="Безымянный_градиент_27" y1="20" x2="40" y2="20" gradientUnits="userSpaceOnUse"><stop offset="0" stop-color="#36aee2"/><stop offset="1" stop-color="#1e96c8"/></linearGradient></defs><title>Footer_Contacts_Telegram_Active</title><g id="Слой_2" data-name="Слой 2"><g id="Слой_1-2" data-name="Слой 1"><circle class="cls-1" cx="20" cy="20" r="20"/><path class="cls-2" d="M19.26,24.72,17,26.93a1.16,1.16,0,0,1-.93.38.47.47,0,0,1-.48-.37c-.57-1.78-1.15-3.55-1.72-5.33a.43.43,0,0,0-.32-.32c-1.35-.41-2.69-.83-4-1.26a2.17,2.17,0,0,1-.6-.27A.43.43,0,0,1,8.84,19a2.86,2.86,0,0,1,.78-.49q2.47-1,5-1.92l12.62-4.87c.8-.31,1.42.12,1.33,1a13.51,13.51,0,0,1-.31,1.64q-1.36,6.46-2.75,12.94c-.21,1-.93,1.29-1.78.67l-4.23-3.13ZM16.09,26h.05a.5.5,0,0,0,0-.12c.09-1,.19-2,.27-2.93a.69.69,0,0,1,.26-.52l3.88-3.51,4.3-3.88a1.19,1.19,0,0,0,.19-.33,1.12,1.12,0,0,0-.4,0,1.77,1.77,0,0,0-.48.23l-9.49,6a.29.29,0,0,0-.15.4c.24.67.45,1.35.67,2C15.5,24.24,15.8,25.13,16.09,26Z"/></g></g></svg>