<svg xmlns="http://www.w3.org/2000/svg" viewBox="0 0 57.05 39.94"><defs><style>.cls-1{fill:#858585;}</style></defs><title>Footer_Contacts_YouTube</title><g id="Слой_2" data-name="Слой 2"><g id="Слой_1-2" data-name="Слой 1"><path class="cls-1" d="M26.37,0h-1V1h1Zm-2,0h-1l0,1h1Zm-2,0-1,0,0,1,1,0Zm-2,.05h-.43l-.57,0,0,1,1,0Zm-2,.06h0l-1,0,0,1,1,0Zm-2,.07-1,.05,0,1,1-.05Zm-2,.1-.63,0h-.37l0,1,.34,0,.66,0Zm-2,.11h-.21l-.43,0h-.06l-.3,0,.07,1,1-.06Zm-2,.14L9.92.6H9.87L9.39.66l.1,1,1-.09ZM8.4.77,7.68.86h0L7.41.9l.16,1,.25,0,.7-.09Zm-2,.34a8.16,8.16,0,0,0-.95.32l.37.93a6.89,6.89,0,0,1,.84-.28Zm-1.85.74a8.09,8.09,0,0,0-.73.46H3.76l0,0,.6.79a6.76,6.76,0,0,1,.72-.46ZM3,3.06a6.46,6.46,0,0,0-.65.75l.8.6a5.81,5.81,0,0,1,.56-.65ZM1.8,4.65l-.05.1H1.62V5h0v0h0c-.06.14-.13.29-.18.43h0v0h0l.93.36c.11-.27.23-.54.36-.79ZM1.08,6.51C1,6.67,1,6.83,1,7H1V7H1l-.09.46,1,.18L2,7.19c0-.14.06-.29.1-.43Zm-.37,2,0,.13h0c0,.27-.08.55-.11.82l1,.13c0-.32.09-.64.14-1Zm-.26,2c0,.23,0,.45-.07.67h0v0h0v0h0v0h0l0,.2,1,.08.09-1Zm-.17,2V13h0v0h0v.06h0v.08h0v0h0v.06h0v.13l1,.06,0-.75v-.24Zm-.1,2,0,.53h0v0h0v0h0v0h0l0,.36,1,.05c0-.34,0-.67,0-1Zm-.09,2h0c0,.33,0,.66,0,1l1,0c0-.33,0-.66,0-1Zm-.06,2v.19H0v.09H0v0H0v0H0v0H0v0H0v0H0v0H0v0H0v0H0v0H0v0H0c0,.14,0,.27,0,.41H1c0-.33,0-.66,0-1Zm0,2v.31H0v.64H1v-1Zm1,2-1,0c0,.23,0,.46,0,.69H0v0H0c0,.09,0,.19,0,.28l1,0Zm.07,2-1,.05v.22h0c0,.25,0,.49,0,.74l1-.06C1.12,25.06,1.1,24.73,1.09,24.4Zm.11,2-1,.07c0,.2,0,.41,0,.62v0h0l0,.32,1-.08C1.25,27,1.22,26.71,1.2,26.38Zm.16,2-1,.09h0v0h0v0h0v0h0v0h0v0h0v0h0v0h0v0h0v0h0v0h0v0h0v0h0v0h0V29h0v.15h0v.06h0v0h0v0h0v0h0v0h0v0h0v0l1-.1Zm.2,2-1,.12v0h0c0,.26.07.52.1.79l0,.15,1-.15C1.64,31,1.6,30.63,1.56,30.31Zm.28,1.9-1,.2v.05h0c0,.12.05.23.07.35H1l.09.36h0l1-.25C2,32.82,1.9,32.52,1.84,32.21ZM2.32,34l-.93.35a7.59,7.59,0,0,0,.41.91l.88-.47A8.2,8.2,0,0,1,2.32,34Zm.82,1.52-.81.59,0,.06h0l0,0h0a7.45,7.45,0,0,0,.52.6l.72-.7A4.85,4.85,0,0,1,3.14,35.5Zm1.19,1.2-.6.81.13.09h.22l.25.15h.09l0,0h.12l.48-.88A5.21,5.21,0,0,1,4.33,36.7Zm1.51.82-.36.93.3.11H6l.23.07h0l0,0h.06l.25-1A6.77,6.77,0,0,1,5.84,37.52ZM7.58,38l-.16,1h0l.2,0h.18l.59.08h0l.11-1C8.21,38.07,7.89,38,7.58,38Zm1.91.23-.09,1,1,.08.08-1Zm2,.17-.08,1,1,.08.07-1Zm2,.14-.06,1c.33,0,.67,0,1,.06l.06-1Zm2,.11,0,1h.45l.55,0,0-1Zm2,.09,0,1h1l0-1Zm2,.06,0,1h.34l.43,0h.23l0-1Zm2,0,0,1h1l0-1Zm2,0,0,1h1l0-1Zm2,0,0,1h1l0-1Zm2,0,0,1h1l0-1Zm2,0-1,0v1h.12l.85,0v0h1v-1h-.93Zm2.92,0-1,0v1h1Zm2,0h-1v1h1Zm2,0-1,0,0,1,1,0Zm2-.05-1,0,0,1,.54,0h.46Zm2-.07-1,0,0,1h.23l.6,0h.17Zm2-.09-1,0,.05,1h.4l.59,0Zm2-.11-1,.06,0,1h.13l.87,0Zm2-.14-1,.07.07,1,.41,0h.06l.53,0Zm2-.19-1,.1.09,1,1-.1Zm1.87-.28-.21,0-.7.12.15,1L49.6,39h.08l.34-.06h.15l.07,0h0Zm1.63-.6a7.91,7.91,0,0,1-.79.35l.34.94.17-.07h.09c.22-.09.43-.19.64-.3h0Zm1.41-1a6.05,6.05,0,0,1-.68.55l.58.82.18-.13h.25l.08-.06h.22l0,0Zm1.09-1.33a6.85,6.85,0,0,1-.5.7l.77.64h0l0,0h.09l0-.05h.09l0,0h.1v0H55v0h0v0Zm.71-1.58a7.1,7.1,0,0,1-.3.81l.91.41a5.12,5.12,0,0,0,.25-.65h0l.07-.21Zm.4-1.83q-.08.46-.18.93l1,.21c.07-.32.13-.65.18-1h0Zm.25-1.93c0,.33-.07.65-.12,1l1,.13,0-.19h0v0h0v0h0v0h0v0h0v0h0c0-.17,0-.34,0-.5Zm.18-2c0,.3-.05.6-.08.9v.09l1,.09v-.09h0v0h0v-.06h0v-.08h0v0h0c0-.15,0-.3,0-.46Zm.14-2-.06,1,1,.07.06-1Zm.1-2c0,.33,0,.66,0,1l1,0,0-.58h0c0-.13,0-.26,0-.39Zm.05-2c0,.33,0,.66,0,1l1,0h0v0h0v0h0c0-.31,0-.62,0-.94Zm1-2h-1v1h1Zm0-2-1,0c0,.32,0,.65,0,1h1V18.2h0v0h0Zm-.07-2-1,0,0,1,1,0C57,16.39,57,16.06,57,15.72Zm-.1-2-1,.06.06,1,1,0v-.18h0l0-.58h0v0h0v0h0v0h0Zm-.15-2-1,.09c0,.33,0,.66.08,1l1-.07C56.76,12.4,56.73,12.07,56.71,11.73Zm-.21-2-1,.13c0,.32.07.64.11,1l1-.1-.06-.56v0h0v0h0v0h0v0h0v0h0v0h0v0Zm-.3-2-1,.18c.05.31.11.63.15,1l1-.15c0-.16,0-.33-.08-.5h0v0h0C56.25,8,56.22,7.9,56.2,7.77Zm-.47-1.95-.94.32q.14.41.24.87l1-.22,0-.12h0c0-.15-.07-.29-.11-.43H55.8ZM54.85,4,54,4.6a6,6,0,0,1,.43.74l.9-.44-.13-.24H55ZM53.51,2.57l-.64.77a7,7,0,0,1,.63.59l.73-.68c-.12-.13-.24-.25-.37-.37h-.11Zm-1.71-1-.39.92c.26.12.52.25.76.39L52.69,2c-.15-.08-.3-.17-.45-.24h-.13ZM49.88,1l-.17,1c.3,0,.6.12.87.19l.27-1A9.8,9.8,0,0,0,49.88,1Zm-2-.27-.12,1,1,.13.14-1Zm-2-.19-.08,1,1,.08.09-1L46,.54h-.12Zm-2-.13-.06,1,.71,0h.06l.23,0,.06-1h-.23l-.4,0Zm-2-.11,0,1,1,.05.06-1L42.2.3h-.29Zm-2-.09,0,1,1,0,0-1h-.36Zm-2-.06,0,1,.66,0h.34l0-1h-.35Zm-2,0,0,1,1,0,0-1Zm-2,0,0,1,1,0,0-1Zm-2,0,0,1h1l0-1Zm-2,0V1h1V0h-1Zm-2,0V1h1V0h-1ZM26.37,0V1h.54V0h-.55Z"/><path class="cls-1" d="M23.41,28.5,38.27,20,23.41,11.39Z"/></g></g></svg>