<svg xmlns="http://www.w3.org/2000/svg" xmlns:xlink="http://www.w3.org/1999/xlink" viewBox="0 0 57.05 39.94"><defs><style>.cls-1{fill:url(#Безымянный_градиент_45);}.cls-2{fill:#fff;}</style><linearGradient id="Безымянный_градиент_45" x1="28.53" y1="39.94" x2="28.53" gradientUnits="userSpaceOnUse"><stop offset="0" stop-color="#bf171d"/><stop offset="0.05" stop-color="#c3191e"/><stop offset="0.28" stop-color="#cf2021"/><stop offset="0.5" stop-color="#d32222"/><stop offset="0.75" stop-color="#d92524"/><stop offset="1" stop-color="#e42c27"/></linearGradient></defs><title>Footer_Contacts_YouTube_Active</title><g id="Слой_2" data-name="Слой 2"><g id="Слой_1-2" data-name="Слой 1"><path class="cls-1" d="M29.41,39.94c-2.79,0-5.58-.08-8.38-.14-1.91,0-3.83-.09-5.75-.19s-3.93-.24-5.88-.41a17.94,17.94,0,0,1-3-.46,7,7,0,0,1-5.28-5.28A25.07,25.07,0,0,1,.46,29.4,86.41,86.41,0,0,1,0,19.62c0-2.31.13-4.61.26-6.91A42.2,42.2,0,0,1,1,7,7.35,7.35,0,0,1,3.51,2.58,8.22,8.22,0,0,1,7.68.86c2-.28,4-.41,6-.52Q20.2,0,26.68,0q6,0,11.89.16c2,0,4.08.16,6.11.29,1.72.1,3.43.26,5.13.53a7.39,7.39,0,0,1,4.51,2.37A7.51,7.51,0,0,1,56,6.93a36.64,36.64,0,0,1,.64,4.43A94.62,94.62,0,0,1,57,21.46c0,2.39-.16,4.78-.38,7.16a28.92,28.92,0,0,1-.76,4.89A7.5,7.5,0,0,1,50,38.9a30.83,30.83,0,0,1-3.46.42c-5.3.44-10.61.52-15.92.57H29.41Z"/><path class="cls-2" d="M23.41,28.5,38.27,20,23.41,11.39Z"/></g></g></svg>