<svg xmlns="http://www.w3.org/2000/svg" viewBox="0 0 40.35 39.84"><defs><style>.cls-1{fill:#858585;}</style></defs><title>Footer_Contacts_Whatsapp</title><g id="Слой_2" data-name="Слой 2"><g id="Слой_1-2" data-name="Слой 1"><path class="cls-1" d="M14.35,11.63h.21c.66-.11,1,.26,1.22.82.4,1,.81,2,1.27,3a1.25,1.25,0,0,1-.17,1.4c-.29.38-.6.74-.9,1.09a.64.64,0,0,0-.1.9A11.93,11.93,0,0,0,22,24.08a.64.64,0,0,0,.85-.24c.43-.51.85-1,1.27-1.56s.57-.53,1.09-.29c1.19.55,2.36,1.12,3.54,1.67a.68.68,0,0,1,.37.66,3.47,3.47,0,0,1-2.23,3.41,4.36,4.36,0,0,1-3.3.3c-1.37-.47-2.76-.93-4.09-1.52a12.78,12.78,0,0,1-3.89-2.89,20.23,20.23,0,0,1-3.87-5.31,5.42,5.42,0,0,1-.3-4.27A4.83,4.83,0,0,1,13,12,1.76,1.76,0,0,1,14.35,11.63Z"/><path class="cls-1" d="M20.43,0h-1l.05,1,.95,0Zm-2,.1h0L18,.14h-.3l-.29,0,.15,1,.94-.12Zm-2,.3c-.33.06-.65.14-1,.22l.25,1c.3-.08.61-.15.92-.21ZM14.52.89l-.12,0h-.1L14.09,1H14l-.44.15.34.94q.45-.16.9-.3Zm-1.88.69-.52.23H12l-.3.14.44.9c.28-.14.57-.27.86-.39Zm-1.8.87-.36.21h0L10,3l.52.85c.27-.17.54-.33.82-.48Zm-1.7,1L8.48,4H8.33l.61.8c.25-.2.5-.38.77-.56ZM7.55,4.72l-.12.1H7.3L7.23,5h0l0,0h0l0,0H6.8l.69.73.71-.63ZM6.09,6.09,6,6.18H5.94c-.18.18-.35.37-.52.57h0l.75.66c.21-.24.42-.47.64-.7ZM4.78,7.59l-.12.15h0l0,0H4.31v0h0v0h0l0,.08h0L5,9l.57-.76ZM3.62,9.22c-.08.13-.17.26-.25.4H3.32c-.08.12-.15.24-.22.37l.87.49c.16-.27.32-.54.49-.81ZM2.63,11l-.27.56h0l-.11.25.92.41c.12-.29.26-.58.4-.86Zm-.81,1.83c-.12.31-.23.62-.33.94l1,.31c.09-.3.2-.6.31-.9Zm-.62,1.9c-.09.32-.17.64-.24,1l1,.21c.07-.31.14-.62.22-.92Zm-.43,2c0,.18-.06.37-.08.56h0c0,.11,0,.22,0,.33l1,.11c0-.31.08-.63.13-.94Zm-.22,2v.07h0c0,.28,0,.57,0,.85l1,0c0-.32,0-.64,0-.95Zm1,2-1,0v.05h0v0h0v0h0v0h0v0h0v0h0v0h0v0h0v0h0v0h0v0h0v0h0v0h0a2.53,2.53,0,0,0,0,.38l1-.08C1.55,21.22,1.53,20.91,1.52,20.59Zm.16,1.89-1,.14,0,.26h0v0h0v0c0,.2.07.4.1.59l1-.18C1.77,23.11,1.72,22.8,1.68,22.48ZM2,24.35l-1,.23c.05.21.11.43.17.64l.09.33,1-.28C2.18,25,2.1,24.66,2,24.35Zm.54,1.82-.94.33c0,.1.07.2.1.3h0v0h0v0h0v0h0l.05.13h0l0,0h0v0h0v0h0l.07.18.93-.38C2.78,26.77,2.66,26.47,2.56,26.17Zm.72,1.76-.91.42q.21.45.45.9l.88-.47C3.55,28.5,3.41,28.21,3.28,27.93Zm-.2,2.21-.31.95,1,.31L4,30.46ZM2.46,32l-.11.32h0L2.14,33l.95.31.32-.95Zm-.63,1.9s0,.1-.08.23h0l-.24.71,1,.31.32-1Zm-.63,1.9L1,36.41H1l-.13.38,1,.31.32-1Zm-.63,1.9,0,.11h0L0,39.46l0,.1.23-.05h0L1,39.34.9,38.9l.31.1.31-1Zm2.16.18-1,.22.22,1,1-.22Zm1.95-.45-1,.22.22,1,1-.22Zm2-.44-1,.22.22,1,.48-.1h0L6.85,38Zm2-.45-1,.22.22,1,1-.22Zm2-.46-.38.08-.69.16.22,1,.69-.15h.07l.19.1.49-.87L11,36.31Zm1.43.77-.45.9.58.27h.09l.24.11.4-.92C12.62,37.17,12.33,37,12.05,36.89Zm1.74.76-.35.93.28.11h.1l.29.1h.08l.19.06.3-.95Zm1.81.57-.26,1,.26.06H16l.36.08.21-1C16.21,38.38,15.9,38.3,15.6,38.22Zm1.85.39-.15,1,.16,0h.13l.31,0H18l.26,0,.11-1Zm1.89.2-.05,1c.33,0,.66,0,1,0v-1C20,38.84,19.66,38.83,19.34,38.81Zm2.85-.05-1,.07.05,1h.38l.61-.05Zm1.88-.27c-.31.06-.62.12-.94.16l.15,1,.26,0h.35l.28,0h.09ZM25.91,38l-.91.25.24,1c.29-.07.59-.15.88-.24h.08Zm1.79-.64-.89.34.34.94.4-.15h.05l.48-.19Zm1.71-.82-.84.43.43.9c.3-.14.6-.29.89-.45Zm1.63-1-.8.52.52.85.84-.54Zm1.51-1.14-.74.59.6.8.07-.05h0l0,0h.39l0,0h.26ZM34,33.16c-.22.23-.45.45-.68.66l.67.74.16-.15h.51l0-.06Zm1.26-1.42c-.2.25-.41.49-.62.72l.75.67.11-.12h.08c.16-.18.31-.36.46-.55Zm1.11-1.54q-.26.39-.54.78l.81.59c.1-.13.19-.27.28-.4h.05L37,31H37l0-.05h.08v0Zm1-1.65c-.15.29-.3.56-.46.84l.87.5.2-.35h0l.24-.44Zm.78-1.73c-.12.3-.24.59-.37.88l.91.41c.14-.3.27-.61.39-.92Zm.6-1.8c-.08.31-.18.61-.28.91l1,.32c.11-.32.21-.63.3-1Zm.42-1.85c0,.32-.12.63-.19.93l1,.22,0-.11h0c.06-.28.12-.56.17-.84Zm.23-1.88c0,.31,0,.63-.09.94l1,.12.06-.5h0v-.11Zm1-1.93-1,0c0,.17,0,.35,0,.53s0,.28,0,.42l1,0c0-.12,0-.24,0-.36h0v0h0C40.35,19.68,40.34,19.52,40.34,19.36Zm-.15-2-1,.12c0,.32.08.63.1,1l1-.08,0-.33h0c0-.12,0-.24,0-.37h0Zm-.36-2-1,.23c.07.3.13.61.19.92l1-.17C40,16.05,39.91,15.72,39.83,15.4Zm-.55-1.92-.94.32c.1.3.19.6.28.91l1-.28L39.46,14h0C39.39,13.81,39.34,13.64,39.28,13.48Zm-.74-1.86-.91.42c.13.28.26.58.38.87l.93-.37-.12-.28h-.17v0h0Zm-.92-1.77-.87.5c.16.28.32.55.46.83l.89-.46L38,10.58h0L37.7,10h0l0,0h0Zm-1.1-1.67-.81.59q.28.38.54.78L37.09,9l-.39-.57h-.1ZM35.26,6.62l-.74.67.61.72.78-.63-.16-.19h-.12ZM33.85,5.2l-.67.74.68.66.71-.7,0,0h-.46ZM32.31,3.93l-.6.8c.26.19.51.39.75.59l.64-.77-.05,0h-.43ZM30.65,2.82l-.52.86c.28.16.54.33.81.51l.55-.84-.08-.05h0C31.16,3.13,30.91,3,30.65,2.82Zm-1.77-.94-.42.9.85.43.47-.88-.11-.06H29.6l-.37-.18h-.08ZM27,1.12l-.33.95c.3.1.6.21.89.33L28,1.48l-.25-.1h-.16ZM25.12.56l-.24,1c.31.07.62.15.92.24l.28-1L25.6.68h-.06Zm-2-.38-.13,1q.46.06.93.15l.19-1L23.83.29h-.11Zm-2-.17,0,1c.32,0,.64,0,.95.06l.09-1Z"/></g></g></svg>