<svg xmlns="http://www.w3.org/2000/svg" viewBox="0 0 60 60"><defs><style>.cls-1{fill:#fff;}</style></defs><title>Footer_Contacts_Mail</title><g id="Слой_2" data-name="Слой 2"><g id="Слой_1-2" data-name="Слой 1"><path class="cls-1" d="M30,1A29,29,0,1,1,1,30,29,29,0,0,1,30,1m0-1A30,30,0,1,0,60,30,30,30,0,0,0,30,0Z"/><path class="cls-1" d="M40,22V38H19V22H40m0-2H19a2,2,0,0,0-2,2V38a2,2,0,0,0,2,2H40a2,2,0,0,0,2-2V22A2,2,0,0,0,40,20Z"/><polygon class="cls-1" points="20.14 25.19 29.97 35.01 39.64 25.34 38.94 24.63 29.97 33.6 20.85 24.48 20.14 25.19 20.14 25.19"/><polyline class="cls-1" points="24.29 32.83 20.2 36.92 20.9 37.63 25 33.53"/><polyline class="cls-1" points="34.74 33.53 38.83 37.63 39.54 36.92 35.45 32.83"/></g></g></svg>