<svg xmlns="http://www.w3.org/2000/svg" xmlns:xlink="http://www.w3.org/1999/xlink" viewBox="0 0 40.39 39.84"><defs><style>.cls-1{fill:url(#Безымянный_градиент_38);}.cls-2{fill:#fff;}</style><linearGradient id="Безымянный_градиент_38" x1="20.19" y1="39.84" x2="20.19" gradientUnits="userSpaceOnUse"><stop offset="0" stop-color="#35b41f"/><stop offset="0.15" stop-color="#24a614"/><stop offset="0.33" stop-color="#189c0d"/><stop offset="0.5" stop-color="#14990a"/><stop offset="0.63" stop-color="#1a9e0e"/><stop offset="0.8" stop-color="#2aac1a"/><stop offset="0.99" stop-color="#44c32e"/><stop offset="1" stop-color="#45c42f"/></linearGradient></defs><title>Footer_Contacts_Whatsapp_Active</title><g id="Слой_2" data-name="Слой 2"><g id="Слой_1-2" data-name="Слой 1"><path class="cls-1" d="M40.39,19.92A19.94,19.94,0,0,1,10.5,37.18L0,39.57l3.21-9.69a19.92,19.92,0,1,1,37.18-10Z"/><path class="cls-2" d="M14.39,11.63h.2c.67-.11,1,.26,1.22.82.41,1,.82,2,1.28,3a1.27,1.27,0,0,1-.17,1.4c-.29.38-.6.74-.91,1.09a.65.65,0,0,0-.09.9,12,12,0,0,0,6.14,5.22.63.63,0,0,0,.85-.24c.44-.51.86-1,1.28-1.56s.57-.53,1.09-.29l3.54,1.67a.65.65,0,0,1,.36.66A3.45,3.45,0,0,1,27,27.73a4.36,4.36,0,0,1-3.3.3c-1.38-.47-2.76-.93-4.09-1.52a12.66,12.66,0,0,1-3.89-2.89,20.23,20.23,0,0,1-3.87-5.31,5.38,5.38,0,0,1-.3-4.27A4.83,4.83,0,0,1,13,12,1.76,1.76,0,0,1,14.39,11.63Z"/></g></g></svg>