<svg xmlns="http://www.w3.org/2000/svg" viewBox="0 0 40 40"><defs><style>.cls-1{fill:#858585;}</style></defs><title>Footer_Contacts_VK</title><g id="Слой_2" data-name="Слой 2"><g id="Слой_1-2" data-name="Слой 1"><path class="cls-1" d="M31,15.75v.33c-.1.25-.18.51-.3.75a15.81,15.81,0,0,1-1.59,2.45c-.7.93-1.4,1.86-2.05,2.82a.2.2,0,0,0,0,.25c.85.91,1.78,1.75,2.62,2.66A4.33,4.33,0,0,1,31,27.07v.07a.8.8,0,0,1-.83.63l-1.54,0c-.64,0-1.29.06-1.93,0A2.59,2.59,0,0,1,25,27c-.45-.45-.86-.93-1.29-1.39a3.26,3.26,0,0,0-1-.81.52.52,0,0,0-.6.07,1.47,1.47,0,0,0-.53.91c-.11.58-.11,1.18-.19,1.76a.15.15,0,0,1-.12.13c-1.06.18-2.14,0-3.2.21a1.18,1.18,0,0,1-.91-.19,18.6,18.6,0,0,1-3.58-2.54c-.6-.7-1.19-1.42-1.72-2.18a32.12,32.12,0,0,1-1.72-2.73c-.55-1-1-2-1.55-3-.21-.42-.39-.85-.58-1.28v-.33a.76.76,0,0,1,.71-.33c1.08,0,2.15,0,3.23,0a1,1,0,0,1,.93.63c.07.18.14.36.23.54.46.92.92,1.85,1.4,2.77a5,5,0,0,0,1.08,1.51,2.05,2.05,0,0,0,.59.38.42.42,0,0,0,.52-.21A2.64,2.64,0,0,0,17,19.85,9.45,9.45,0,0,0,17,17a1.33,1.33,0,0,0-.49-1,3.14,3.14,0,0,0-.68-.28c-.17-.06-.22-.13-.09-.25a2.41,2.41,0,0,1,.65-.46,3.61,3.61,0,0,1,1-.18,13.21,13.21,0,0,1,1.54-.05c.59,0,1.17.06,1.76.13a.82.82,0,0,1,.77.7,4.45,4.45,0,0,1,.08.81c0,1.12-.06,2.23-.06,3.35a2.81,2.81,0,0,0,.14.95.5.5,0,0,0,.9.23c.16-.17.36-.31.51-.5a16.46,16.46,0,0,0,2-3.21c.21-.45.4-.91.59-1.36a.69.69,0,0,1,.69-.5h1.63c.76,0,1.51,0,2.26,0C30.46,15.33,30.82,15.36,31,15.75Z"/><path class="cls-1" d="M20,0h-.22L19,0l0,1,1,0ZM18,.1l-.62.07h0l-.14,0h-.06L17,.22l.14,1,1-.12ZM16,.39l-.69.16h0l-.24.06.24,1,.93-.21Zm-1.94.5-.2.06h-.07l-.48.17h0l-.17.07.34.94.9-.31Zm-1.87.68-.16.07h0l-.58.27h0L11.3,2l.43.9.87-.4Zm-1.8.87c-.3.16-.58.33-.87.51l.53.85c.26-.17.54-.33.82-.48ZM8.7,3.49l-.53.38H8l-.13.1.61.79c.25-.19.51-.37.77-.55ZM7.11,4.7H6.87l-.51.46.69.73c.23-.22.46-.43.71-.63ZM5.65,6.06c-.23.24-.46.49-.68.74l.75.66c.21-.24.43-.47.65-.7ZM4.33,7.57c-.18.22-.35.44-.51.67H3.73L4.54,9c.18-.26.38-.51.57-.76ZM3.17,9.19c-.15.22-.29.45-.42.68h0L2.65,10l.86.5c.16-.27.32-.54.5-.81Zm-1,1.73-.09.18h0c-.11.23-.23.47-.33.71l.91.41c.13-.29.27-.58.41-.86Zm-.82,1.83L1.26,13H1.21c0,.1-.07.21-.11.31h0l-.07.2L2,14c.1-.3.21-.59.32-.89Zm-.63,1.9c0,.16-.09.32-.13.48h0c0,.15-.07.3-.1.45l1,.21c.07-.31.15-.61.23-.92Zm-.44,2,0,.19h0c0,.19-.06.39-.08.59l1,.12c0-.32.09-.63.14-.94Zm-.24,2c0,.16,0,.31,0,.47H0c0,.14,0,.29,0,.43l1,0c0-.32,0-.63,0-1Zm1,2-1,0c0,.12,0,.25,0,.37H0c0,.2,0,.41,0,.61l1-.08C1,21.19,1,20.87,1,20.55Zm.15,1.9-1,.12c0,.24.06.48.1.71s0,.19,0,.28l1-.18C1.24,23.08,1.19,22.76,1.15,22.45Zm.34,1.87-1,.22c.06.23.11.45.17.67h0l0,.11,1-.28C1.64,24.93,1.56,24.63,1.49,24.32ZM2,26.14l-.95.32h0l.05.16h0c.07.21.16.43.24.64L2.34,27C2.22,26.74,2.11,26.44,2,26.14Zm.7,1.76-.91.42.13.28H2l.28.57.89-.46C3,28.48,2.84,28.19,2.71,27.9Zm.88,1.69-.86.5v0h0c.16.28.33.55.5.81l.84-.54C3.92,30.13,3.75,29.86,3.59,29.59Zm1,1.59-.81.59c.2.27.4.53.61.79l.78-.63C5,31.69,4.82,31.43,4.63,31.18Zm1.19,1.48-.74.66v0h.14v0h0l.06.07h0l.43.45.71-.7ZM7.16,34l-.68.73c.25.23.5.45.76.66l.63-.77Zm1.46,1.21L8,36l.34.25h.17l.31.21.56-.83C9.13,35.59,8.87,35.41,8.62,35.22Zm1.58,1.06-.52.86c.22.13.44.26.67.38h0l.19.1.47-.88C10.74,36.6,10.47,36.44,10.2,36.28Zm1.67.9-.43.9.07,0h.1l.19.09h.11l.44.19.39-.93C12.44,37.44,12.15,37.31,11.87,37.18Zm1.75.73-.33.94.52.18h0l.39.12.29-1Zm1.82.54-.24,1,.29.07h.06l.63.14.19-1C16.06,38.59,15.75,38.53,15.44,38.45Zm1.87.36-.14,1c.32.05.64.08,1,.11h0l.09-1C17.93,38.89,17.62,38.86,17.31,38.81ZM19.2,39l0,1h1V39H20Zm2.85-.09L21.1,39l.06,1,.42,0h.08l.49,0Zm1.87-.3-.93.18.15,1,.56-.09h.08l.35-.07Zm1.84-.48c-.3.1-.61.18-.91.27l.25,1c.29-.07.58-.16.87-.25h0l.08,0Zm1.78-.66-.88.35.35.94c.31-.12.62-.24.92-.38Zm1.7-.85-.84.45.44.89.89-.46Zm1.61-1-.79.52.53.85.52-.34h0l.27-.18Zm1.5-1.17c-.24.21-.49.41-.74.61l.62.79.14-.12h.25l.38-.32Zm1.38-1.3-.67.67.68.73.09-.08h.59l0,0ZM35,31.69c-.19.25-.39.5-.6.74l.76.65.09-.11h.08l.46-.57Zm1.1-1.55c-.17.27-.35.53-.53.79l.82.57c.16-.23.32-.46.47-.7h0l0-.07ZM37,28.49c-.14.28-.29.56-.45.83l.88.5h0l.16-.3h0v0h0l.27-.52Zm.76-1.74c-.11.29-.23.59-.36.88l.92.4c.12-.28.23-.56.34-.84h0Zm.59-1.81c-.08.31-.17.61-.27.91l1,.31v0h0c.07-.22.13-.44.2-.66h0v0h0l0-.17Zm.4-1.86c0,.32-.11.63-.18.94l1,.21L39.6,24h.06c0-.14.05-.28.07-.42ZM39,21.2c0,.31-.05.63-.08.94l1,.11,0-.31h0c0-.18,0-.35,0-.52Zm1-1.94-1,0c0,.24,0,.47,0,.71v.25h1V20h0C40,19.62,40,19.44,40,19.26Zm-.17-2-1,.13c0,.31.08.63.1,1l1-.09c0-.13,0-.26,0-.38h0c0-.13,0-.26,0-.39h0Zm-.37-2-1,.24c.07.3.14.61.2.92l1-.18C39.59,16,39.52,15.63,39.44,15.3Zm-.56-1.92-1,.33c.11.3.2.6.29.91l1-.28-.07-.24C39,13.86,39,13.62,38.88,13.38Zm-.76-1.85-.91.43q.21.42.39.87l.92-.38-.07-.17h0C38.33,12,38.22,11.76,38.12,11.53Zm-.94-1.76-.86.51c.17.27.32.55.47.83l.88-.47-.1-.19h0C37.44,10.2,37.31,10,37.18,9.77ZM36.07,8.1l-.8.6c.19.25.37.51.55.78l.83-.56-.14-.2h-.13l-.19-.26h-.08ZM34.81,6.56l-.74.67.62.72.77-.63c-.1-.13-.21-.25-.31-.37h0v0h-.27l0,0h0v0ZM33.39,5.15l-.67.74c.24.21.46.43.69.65l.71-.7h-.44ZM31.84,3.88l-.59.81.75.58.63-.77,0,0h-.06L31.92,4h0Zm-1.67-1.1-.51.86c.28.16.55.33.81.5L31,3.31l-.25-.17h-.06l-.45-.28h-.05ZM28.4,1.85,28,2.76c.29.13.58.27.85.42l.47-.89L28.78,2h-.09ZM26.55,1.1,26.22,2l.89.34.38-.93-.27-.11h-.08l-.56-.2h0ZM24.63.54l-.23,1,.92.25.28-1L24.9.61h-.06Zm-2-.36-.14,1c.32,0,.63.09.94.15l.18-1L23.26.26h-.07Zm-2-.17,0,1c.32,0,.64,0,.95.06l.08-1C21.34,0,21,0,20.67,0Z"/></g></g></svg>