<svg xmlns="http://www.w3.org/2000/svg" viewBox="0 0 95.91 34.23"><defs><style>.cls-1{fill:#f36c2e;}.cls-2{fill:#4f5882;}</style></defs><title>Ресурс 1</title><g id="Слой_2" data-name="Слой 2"><g id="Слой_1-2" data-name="Слой 1"><path class="cls-1" d="M12,10.68a4,4,0,0,1-1.76,3.38,7.89,7.89,0,0,1-4.79,1.3,13.14,13.14,0,0,1-3.05-.31A15,15,0,0,1,0,14.27V10.9H.4a8.35,8.35,0,0,0,2.52,1.38,8.21,8.21,0,0,0,2.68.48,7.93,7.93,0,0,0,.86-.06,3.42,3.42,0,0,0,.88-.19A2.12,2.12,0,0,0,8,12.09a1,1,0,0,0,.27-.76,1,1,0,0,0-.39-.8A2.86,2.86,0,0,0,6.76,10Q6,9.83,5.08,9.66a13,13,0,0,1-1.66-.42A5.2,5.2,0,0,1,.86,7.68,3.84,3.84,0,0,1,.09,5.23,3.76,3.76,0,0,1,1.85,2,7.65,7.65,0,0,1,6.38.77,14.09,14.09,0,0,1,9.13,1a12.88,12.88,0,0,1,2.34.68V5h-.38A7.81,7.81,0,0,0,9,3.82a7.29,7.29,0,0,0-2.52-.46,6.82,6.82,0,0,0-.9.07,3.12,3.12,0,0,0-.86.23,1.65,1.65,0,0,0-.64.43,1,1,0,0,0-.26.65,1,1,0,0,0,.42.86,4.72,4.72,0,0,0,1.61.54l1.49.32a14.12,14.12,0,0,1,1.53.41,5.07,5.07,0,0,1,2.39,1.44A3.57,3.57,0,0,1,12,10.68Z"/><path class="cls-1" d="M20.82,15a9.56,9.56,0,0,1-1.16.22,12.55,12.55,0,0,1-1.5.08,4.61,4.61,0,0,1-3-.8,3.42,3.42,0,0,1-1-2.75v-5H12.84V4.49h1.39v-3h3.42v3h3.17V6.8H17.65v3.76c0,.38,0,.7,0,1a1.83,1.83,0,0,0,.15.75,1,1,0,0,0,.46.52,2,2,0,0,0,1,.2,2.69,2.69,0,0,0,.69-.12,2.19,2.19,0,0,0,.6-.21h.28Z"/><path class="cls-1" d="M33.21,15.1H29.8V13.93A9.83,9.83,0,0,1,28.07,15a4.26,4.26,0,0,1-1.86.38,3.54,3.54,0,0,1-2.71-1,4.24,4.24,0,0,1-.95-3V4.49H26V9.75A12.25,12.25,0,0,0,26,11.09a2.23,2.23,0,0,0,.24.89,1.12,1.12,0,0,0,.54.51,2.72,2.72,0,0,0,1,.16,3.56,3.56,0,0,0,1-.16,4.3,4.3,0,0,0,1-.48V4.49h3.41Z"/><path class="cls-1" d="M46,15.1H42.61V14A7.38,7.38,0,0,1,41,15.06a4.42,4.42,0,0,1-1.76.34,3.72,3.72,0,0,1-3.1-1.5,6.38,6.38,0,0,1-1.16-4,6.86,6.86,0,0,1,.39-2.4,5.5,5.5,0,0,1,1.07-1.79A4.46,4.46,0,0,1,38,4.59,4.63,4.63,0,0,1,39.8,4.2a4.85,4.85,0,0,1,1.56.2,11.74,11.74,0,0,1,1.25.51V.4H46Zm-3.42-2.92V7a2.81,2.81,0,0,0-.75-.22,4,4,0,0,0-.73-.07,2.42,2.42,0,0,0-2,.84,3.66,3.66,0,0,0-.67,2.32A3.77,3.77,0,0,0,39,12.11a2,2,0,0,0,1.73.71,3,3,0,0,0,1-.18A3.53,3.53,0,0,0,42.61,12.18Z"/><path class="cls-1" d="M59,10.42H51.16a2.41,2.41,0,0,0,1,1.91,4.15,4.15,0,0,0,2.57.67,5.74,5.74,0,0,0,2.09-.39,6.72,6.72,0,0,0,1.6-.83h.38v2.73a12.74,12.74,0,0,1-2.18.67,11.21,11.21,0,0,1-2.26.21A7.35,7.35,0,0,1,49.42,14a5,5,0,0,1-1.7-4.09,5.48,5.48,0,0,1,1.61-4.17,6.15,6.15,0,0,1,4.42-1.53,5.29,5.29,0,0,1,3.89,1.31A5.1,5.1,0,0,1,59,9.23Zm-3.39-2A2.37,2.37,0,0,0,55,6.82a2,2,0,0,0-1.56-.53,2.48,2.48,0,0,0-1.61.51,2.14,2.14,0,0,0-.71,1.63Z"/><path class="cls-1" d="M71.43,15.1H68V9.84C68,9.41,68,9,68,8.56a2.5,2.5,0,0,0-.23-.94,1.05,1.05,0,0,0-.55-.51,2.53,2.53,0,0,0-1-.16,3.17,3.17,0,0,0-.94.15,5.15,5.15,0,0,0-1,.48V15.1H60.77V4.49h3.41V5.66a9,9,0,0,1,1.74-1.09,4.51,4.51,0,0,1,1.86-.37,3.54,3.54,0,0,1,2.68,1,4.12,4.12,0,0,1,1,3Z"/><path class="cls-1" d="M80.83,15a9.56,9.56,0,0,1-1.16.22,12.55,12.55,0,0,1-1.5.08,4.61,4.61,0,0,1-3-.8,3.42,3.42,0,0,1-1-2.75v-5H72.85V4.49h1.39v-3h3.42v3h3.17V6.8H77.66v3.76c0,.38,0,.7,0,1a1.83,1.83,0,0,0,.15.75,1,1,0,0,0,.46.52,2,2,0,0,0,1,.2,2.76,2.76,0,0,0,.69-.12,2.19,2.19,0,0,0,.6-.21h.28Z"/><path class="cls-1" d="M86.65,1.43,83.57,6.1l-1.73-.91L83.92,0Z"/><path class="cls-1" d="M95.91,11.74a3.08,3.08,0,0,1-1.47,2.65,7.1,7.1,0,0,1-4,1,11.33,11.33,0,0,1-2.57-.27A9.48,9.48,0,0,1,86,14.55v-2.8h.31l.59.39a6.55,6.55,0,0,0,1,.46A7.76,7.76,0,0,0,89,13a6.05,6.05,0,0,0,1.44.16A3.86,3.86,0,0,0,92,12.91a.71.71,0,0,0,.48-.66.59.59,0,0,0-.28-.56,3.68,3.68,0,0,0-1.08-.34q-.37-.09-1-.18c-.44-.07-.83-.15-1.18-.24a4.3,4.3,0,0,1-2.15-1.18,2.94,2.94,0,0,1-.69-2,3,3,0,0,1,1.45-2.55,6.82,6.82,0,0,1,4-1,10.55,10.55,0,0,1,2.28.24A9.46,9.46,0,0,1,95.43,5V7.64h-.29a7,7,0,0,0-1.73-.85,6,6,0,0,0-2-.33,3.68,3.68,0,0,0-1.38.23c-.38.15-.57.37-.57.64a.68.68,0,0,0,.26.58,3.45,3.45,0,0,0,1.2.4l1.12.2c.4.07.8.15,1.2.25a3.77,3.77,0,0,1,2,1.1A2.78,2.78,0,0,1,95.91,11.74Z"/><path class="cls-2" d="M12.94,29.22a4.31,4.31,0,0,1-1.88,3.61A8.49,8.49,0,0,1,6,34.21a14.86,14.86,0,0,1-3.26-.32,16.84,16.84,0,0,1-2.6-.84v-3.6H.52A8.85,8.85,0,0,0,3.2,30.92a8.64,8.64,0,0,0,2.87.52c.23,0,.54,0,.92-.06a3.81,3.81,0,0,0,.94-.2,2.47,2.47,0,0,0,.73-.46A1,1,0,0,0,9,29.91a1.1,1.1,0,0,0-.42-.85,2.89,2.89,0,0,0-1.22-.55c-.57-.13-1.16-.26-1.79-.38a11.88,11.88,0,0,1-1.78-.45A5.47,5.47,0,0,1,1,26a4.22,4.22,0,0,1,1-6A8.19,8.19,0,0,1,6.9,18.64a15.26,15.26,0,0,1,2.94.29,13.4,13.4,0,0,1,2.5.72v3.46h-.41A8,8,0,0,0,9.7,21.9,7.53,7.53,0,0,0,7,21.41a7.73,7.73,0,0,0-1,.06,4,4,0,0,0-.92.25,1.75,1.75,0,0,0-.68.46,1,1,0,0,0-.28.7,1,1,0,0,0,.45.91,4.91,4.91,0,0,0,1.72.58l1.59.34a17,17,0,0,1,1.64.44,5.52,5.52,0,0,1,2.55,1.54A3.83,3.83,0,0,1,12.94,29.22Z"/><path class="cls-2" d="M26.13,33.94H15.26v-15H26.13v2.91h-7v2.59h6.51v2.91H19.12V31h7Z"/><path class="cls-2" d="M43.43,33.94H38.7l-4.09-5.51h-1.8v5.51H29v-15h6.5a15,15,0,0,1,2.29.16,5,5,0,0,1,1.79.65A3.85,3.85,0,0,1,40.89,21a3.74,3.74,0,0,1,.5,2,4.52,4.52,0,0,1-.77,2.72,5.79,5.79,0,0,1-2.21,1.74Zm-6-10.42a1.86,1.86,0,0,0-.23-1,1.56,1.56,0,0,0-.8-.64,2.72,2.72,0,0,0-.91-.19c-.35,0-.76,0-1.23,0h-1.4v4.05H34a11.31,11.31,0,0,0,1.56-.09,2.35,2.35,0,0,0,1-.42,2.09,2.09,0,0,0,.59-.69A2.37,2.37,0,0,0,37.38,23.52Z"/><path class="cls-2" d="M57.77,18.91l-5.48,15H48l-5.48-15h4.07l3.63,10.55,3.64-10.55Z"/><path class="cls-2" d="M68,33.94h-8.8V31.28h2.46v-9.7H59.16V18.91H68v2.67H65.49v9.7H68Z"/><path class="cls-2" d="M76.9,34.23a9.36,9.36,0,0,1-3.09-.49,6.38,6.38,0,0,1-4-3.92,9.46,9.46,0,0,1-.56-3.38,9.25,9.25,0,0,1,.54-3.24,6.91,6.91,0,0,1,1.55-2.49,6.61,6.61,0,0,1,2.43-1.54,8.78,8.78,0,0,1,3.16-.55,12.39,12.39,0,0,1,1.71.11A10.66,10.66,0,0,1,80,19a10.38,10.38,0,0,1,1.23.42l1,.44v3.65h-.44l-.71-.58a10.41,10.41,0,0,0-1-.65,7.29,7.29,0,0,0-1.2-.54,4.16,4.16,0,0,0-1.38-.22,4.43,4.43,0,0,0-1.55.26,3.69,3.69,0,0,0-1.37.85,4.31,4.31,0,0,0-1,1.52,6.21,6.21,0,0,0-.37,2.29,6,6,0,0,0,.4,2.36,4.19,4.19,0,0,0,1,1.49,3.68,3.68,0,0,0,1.38.79,4.88,4.88,0,0,0,1.49.24,4.8,4.8,0,0,0,1.4-.21,5.06,5.06,0,0,0,1.27-.58,7.77,7.77,0,0,0,.92-.62c.29-.22.52-.41.7-.57h.4v3.59l-1.08.48a10.51,10.51,0,0,1-1.08.38,12.23,12.23,0,0,1-1.38.32A10.4,10.4,0,0,1,76.9,34.23Z"/><path class="cls-2" d="M95.76,33.94H84.89v-15H95.76v2.91h-7v2.59h6.51v2.91H88.74V31h7Z"/></g></g></svg>