<svg xmlns="http://www.w3.org/2000/svg" xmlns:xlink="http://www.w3.org/1999/xlink" viewBox="0 0 254 207"><defs><style>.cls-1{fill:#fff;}.cls-2{fill:#f36c2e;}.cls-3{fill:none;stroke:#f36c2e;stroke-miterlimit:10;}.cls-4{fill:#4f5882;}.cls-5{fill:url(#linear-gradient);}.cls-6{fill:url(#linear-gradient-2);}.cls-7{fill:url(#linear-gradient-3);}</style><linearGradient id="linear-gradient" x1="52.19" y1="96.95" x2="52.19" y2="32.67" gradientUnits="userSpaceOnUse"><stop offset="0" stop-color="#414042"/><stop offset="1" stop-color="#5d6fc0"/></linearGradient><linearGradient id="linear-gradient-2" x1="126.68" y1="96.95" x2="126.68" y2="32.67" xlink:href="#linear-gradient"/><linearGradient id="linear-gradient-3" x1="201.17" y1="96.95" x2="201.17" y2="32.67" xlink:href="#linear-gradient"/></defs><title>Logo_2</title><g id="Слой_2" data-name="Слой 2"><g id="Слой_1-2" data-name="Слой 1"><rect class="cls-1" width="254" height="207" rx="10.58" ry="10.58"/><path class="cls-2" d="M232.33,18.34l-2.68.11h0l-2.93.1h0v0l-6,.17a2.45,2.45,0,0,0-.63.06l0,0-1.66.33V20l1.73.25h0a2.61,2.61,0,0,0,.58.05l6,.18v0l2.93.12v0l2.67.12a1.17,1.17,0,1,0,0-2.34"/><polygon class="cls-2" points="228.59 16.39 227.75 14.86 227.75 14.86 227.37 14.16 227.37 14.16 226.35 12.32 224.25 12.31 226.72 18.3 226.72 18.57 229.65 18.45 229.65 18.31 228.98 17.09 228.99 17.09 228.6 16.39 228.59 16.39"/><polygon class="cls-2" points="229.65 20.56 226.72 20.43 226.72 20.65 224.23 27.05 226.33 27.05 227.1 25.57 227.1 25.57 227.48 24.88 227.46 24.88 227.46 24.88 228.43 23 228.44 23 228.8 22.3 228.79 22.3 229.65 20.65 229.65 20.56"/><polygon class="cls-2" points="219.01 16.85 217.97 16.6 218.4 19.1 218.4 19.1 220.08 18.79 219.01 16.85"/><polygon class="cls-2" points="218.39 19.97 217.96 22.63 219 22.38 220.13 20.2 218.39 19.96 218.39 19.97"/><path class="cls-2" d="M228.64,25.58a.35.35,0,0,0,0-.7h-1.18l-.36.69Z"/><path class="cls-2" d="M230,22.3h-1.24l-.36.7H230a.34.34,0,0,0,.34-.35.35.35,0,0,0-.34-.35"/><path class="cls-2" d="M230,16.39h-1.45l.39.7H230a.34.34,0,0,0,.34-.35.35.35,0,0,0-.34-.35"/><path class="cls-2" d="M228.89,14.86a.35.35,0,1,0,0-.7h-1.52l.38.7Z"/><path class="cls-3" d="M211.69,19.61a1.88,1.88,0,1,1-1.87-1.88A1.87,1.87,0,0,1,211.69,19.61Z"/><path class="cls-3" d="M201.83,19.61A1.88,1.88,0,1,1,200,17.73,1.88,1.88,0,0,1,201.83,19.61Z"/><path class="cls-3" d="M192,19.61a1.88,1.88,0,1,1-1.87-1.88A1.87,1.87,0,0,1,192,19.61Z"/><path class="cls-3" d="M182.1,19.61a1.88,1.88,0,1,1-1.88-1.88A1.88,1.88,0,0,1,182.1,19.61Z"/><path class="cls-3" d="M172.23,19.61a1.88,1.88,0,1,1-1.88-1.88A1.88,1.88,0,0,1,172.23,19.61Z"/><path class="cls-3" d="M162.36,19.61a1.88,1.88,0,1,1-1.87-1.88A1.87,1.87,0,0,1,162.36,19.61Z"/><path class="cls-3" d="M152.5,19.61a1.88,1.88,0,1,1-1.88-1.88A1.88,1.88,0,0,1,152.5,19.61Z"/><path class="cls-3" d="M142.63,19.61a1.88,1.88,0,1,1-1.87-1.88A1.87,1.87,0,0,1,142.63,19.61Z"/><path class="cls-3" d="M132.76,19.61a1.87,1.87,0,1,1-1.87-1.88A1.87,1.87,0,0,1,132.76,19.61Z"/><path class="cls-3" d="M122.9,19.61A1.88,1.88,0,1,1,121,17.73,1.88,1.88,0,0,1,122.9,19.61Z"/><path class="cls-3" d="M113,19.61a1.88,1.88,0,1,1-1.87-1.88A1.87,1.87,0,0,1,113,19.61Z"/><path class="cls-3" d="M103.17,19.61a1.88,1.88,0,1,1-1.88-1.88A1.88,1.88,0,0,1,103.17,19.61Z"/><path class="cls-3" d="M93.3,19.61a1.88,1.88,0,1,1-1.88-1.88A1.88,1.88,0,0,1,93.3,19.61Z"/><path class="cls-3" d="M83.43,19.61a1.88,1.88,0,1,1-1.87-1.88A1.87,1.87,0,0,1,83.43,19.61Z"/><path class="cls-3" d="M73.57,19.61a1.88,1.88,0,1,1-1.88-1.88A1.88,1.88,0,0,1,73.57,19.61Z"/><path class="cls-3" d="M63.7,19.61a1.88,1.88,0,1,1-1.87-1.88A1.87,1.87,0,0,1,63.7,19.61Z"/><path class="cls-3" d="M53.83,19.61A1.88,1.88,0,1,1,52,17.73,1.87,1.87,0,0,1,53.83,19.61Z"/><path class="cls-3" d="M44,19.61a1.88,1.88,0,1,1-1.88-1.88A1.88,1.88,0,0,1,44,19.61Z"/><path class="cls-3" d="M34.1,19.61a1.88,1.88,0,1,1-1.87-1.88A1.87,1.87,0,0,1,34.1,19.61Z"/><path class="cls-3" d="M24.24,19.61a1.88,1.88,0,1,1-1.88-1.88A1.88,1.88,0,0,1,24.24,19.61Z"/><path class="cls-2" d="M46.85,135.24a9,9,0,0,1-3.94,7.54q-3.93,2.9-10.68,2.9a29.61,29.61,0,0,1-6.8-.69A33.83,33.83,0,0,1,20,143.25v-7.53h.89a18.41,18.41,0,0,0,5.62,3.08,18.15,18.15,0,0,0,6,1.08,17.83,17.83,0,0,0,1.94-.13,7.48,7.48,0,0,0,2-.42,4.87,4.87,0,0,0,1.52-1,2.19,2.19,0,0,0,.61-1.69,2.3,2.3,0,0,0-.88-1.78,6.1,6.1,0,0,0-2.56-1.15c-1.18-.28-2.43-.54-3.74-.79a27.92,27.92,0,0,1-3.71-.94,11.56,11.56,0,0,1-5.7-3.49,8.55,8.55,0,0,1-1.74-5.47,8.43,8.43,0,0,1,3.93-7.16,17.15,17.15,0,0,1,10.11-2.77,31.46,31.46,0,0,1,6.13.6,27.94,27.94,0,0,1,5.24,1.51v7.23h-.86a16.84,16.84,0,0,0-4.65-2.54,16.08,16.08,0,0,0-5.62-1,15.12,15.12,0,0,0-2,.13,8,8,0,0,0-1.93.52,3.62,3.62,0,0,0-1.41,1,2.13,2.13,0,0,0-.59,1.47,2.18,2.18,0,0,0,.95,1.9,10.54,10.54,0,0,0,3.58,1.22l3.33.69q1.59.34,3.42.93A11.46,11.46,0,0,1,45.13,130,7.91,7.91,0,0,1,46.85,135.24Z"/><path class="cls-2" d="M66.46,144.9a22,22,0,0,1-2.59.49,26.54,26.54,0,0,1-3.36.18c-2.95,0-5.15-.59-6.59-1.79s-2.16-3.24-2.16-6.14V126.57H48.64v-5.14h3.12v-6.77h7.61v6.77h7.09v5.14H59.37V135c0,.83,0,1.55,0,2.17a4.6,4.6,0,0,0,.34,1.67,2.35,2.35,0,0,0,1,1.17,4.39,4.39,0,0,0,2.18.44,6.36,6.36,0,0,0,1.54-.26,6.56,6.56,0,0,0,1.34-.46h.63Z"/><path class="cls-2" d="M94.11,145.11H86.49v-2.62a22.44,22.44,0,0,1-3.85,2.44,9.72,9.72,0,0,1-4.17.83,7.87,7.87,0,0,1-6-2.25q-2.11-2.26-2.12-6.67V121.43h7.61v11.74c0,1.2,0,2.19.12,3a5.1,5.1,0,0,0,.54,2,2.4,2.4,0,0,0,1.21,1.14,5.75,5.75,0,0,0,2.27.36,7.48,7.48,0,0,0,2.15-.36,9.15,9.15,0,0,0,2.27-1.06V121.43h7.62Z"/><path class="cls-2" d="M122.69,145.11h-7.61v-2.47a16.35,16.35,0,0,1-3.67,2.36,9.5,9.5,0,0,1-3.93.76,8.32,8.32,0,0,1-6.91-3.33c-1.73-2.22-2.59-5.22-2.59-9a15.24,15.24,0,0,1,.87-5.35,12.27,12.27,0,0,1,2.39-4,9.85,9.85,0,0,1,3.48-2.45,10.17,10.17,0,0,1,4.08-.88,11,11,0,0,1,3.49.46,22,22,0,0,1,2.79,1.15V112.29h7.61Zm-7.61-6.52V127a7.74,7.74,0,0,0-1.68-.48,9.76,9.76,0,0,0-1.62-.15,5.39,5.39,0,0,0-4.49,1.87,8.11,8.11,0,0,0-1.49,5.18c0,2.33.4,4,1.2,5.06a4.52,4.52,0,0,0,3.85,1.57,6.85,6.85,0,0,0,2.19-.39A7.79,7.79,0,0,0,115.08,138.59Z"/><path class="cls-2" d="M151.52,134.67H134.14a5.47,5.47,0,0,0,2.12,4.26,9.47,9.47,0,0,0,5.75,1.48,12.84,12.84,0,0,0,4.66-.87,14.86,14.86,0,0,0,3.57-1.85h.84v6.09a28.27,28.27,0,0,1-4.85,1.5,25.29,25.29,0,0,1-5,.46q-7.12,0-10.93-3.2t-3.79-9.14a12.27,12.27,0,0,1,3.59-9.29q3.6-3.42,9.86-3.42c3.86,0,6.75,1,8.69,2.92s2.91,4.75,2.91,8.4ZM144,130.22a5.31,5.31,0,0,0-1.18-3.59,4.53,4.53,0,0,0-3.48-1.2,5.54,5.54,0,0,0-3.6,1.14,4.87,4.87,0,0,0-1.59,3.65Z"/><path class="cls-2" d="M179.37,145.11h-7.61V133.36a27.4,27.4,0,0,0-.15-2.86,6.29,6.29,0,0,0-.5-2.09,2.59,2.59,0,0,0-1.24-1.14,5.7,5.7,0,0,0-2.26-.36,6.78,6.78,0,0,0-2.1.34,11.09,11.09,0,0,0-2.31,1.07v16.79h-7.62V121.43h7.62V124a19.5,19.5,0,0,1,3.88-2.42,9.86,9.86,0,0,1,4.14-.85,7.93,7.93,0,0,1,6,2.24q2.16,2.23,2.16,6.68Z"/><path class="cls-2" d="M200.35,144.9a21.65,21.65,0,0,1-2.59.49,26.26,26.26,0,0,1-3.35.18c-3,0-5.15-.59-6.59-1.79s-2.16-3.24-2.16-6.14V126.57h-3.13v-5.14h3.13v-6.77h7.61v6.77h7.08v5.14h-7.08V135c0,.83,0,1.55,0,2.17a4.4,4.4,0,0,0,.34,1.67,2.31,2.31,0,0,0,1,1.17,4.35,4.35,0,0,0,2.17.44,8.94,8.94,0,0,0,2.88-.72h.63Z"/><path class="cls-2" d="M213.34,114.6,206.45,125l-3.84-2,4.64-11.59Z"/><path class="cls-2" d="M234,137.6a6.88,6.88,0,0,1-3.29,5.92q-3.28,2.23-9,2.24a25.32,25.32,0,0,1-5.74-.59,21.28,21.28,0,0,1-4.13-1.31v-6.24h.69c.38.27.82.56,1.32.88a14.7,14.7,0,0,0,2.12,1,17.71,17.71,0,0,0,2.68.83,14.2,14.2,0,0,0,3.2.35,8.13,8.13,0,0,0,3.31-.5,1.57,1.57,0,0,0,1.08-1.46,1.34,1.34,0,0,0-.63-1.25,8,8,0,0,0-2.41-.75c-.56-.13-1.32-.27-2.29-.41a25.6,25.6,0,0,1-2.62-.54,9.29,9.29,0,0,1-4.79-2.63,6.51,6.51,0,0,1-1.56-4.44,6.72,6.72,0,0,1,3.24-5.68q3.24-2.27,8.85-2.27a23.49,23.49,0,0,1,5.09.54,20.45,20.45,0,0,1,3.8,1.15v6h-.65a15.69,15.69,0,0,0-3.85-1.89,13.77,13.77,0,0,0-4.37-.73,8.18,8.18,0,0,0-3.09.51c-.84.34-1.26.82-1.26,1.43a1.53,1.53,0,0,0,.57,1.29A7.71,7.71,0,0,0,223,130c.77.15,1.61.3,2.5.45s1.79.33,2.69.56a8.54,8.54,0,0,1,4.43,2.45A6.26,6.26,0,0,1,234,137.6Z"/><path class="cls-4" d="M48.87,176.6a9.56,9.56,0,0,1-4.2,8.05q-4.2,3.1-11.41,3.1A32.37,32.37,0,0,1,26,187a38.22,38.22,0,0,1-5.8-1.86v-8h.95a20.14,20.14,0,0,0,6,3.29,19.67,19.67,0,0,0,6.38,1.15c.53,0,1.22-.05,2.08-.14A8.3,8.3,0,0,0,37.7,181a5.2,5.2,0,0,0,1.63-1,2.37,2.37,0,0,0,.64-1.8,2.45,2.45,0,0,0-.93-1.91A6.42,6.42,0,0,0,36.3,175c-1.26-.3-2.59-.59-4-.85a30.78,30.78,0,0,1-4-1,12.36,12.36,0,0,1-6.09-3.73,9.1,9.1,0,0,1-1.86-5.84,9,9,0,0,1,4.2-7.64q4.2-3,10.79-3a33.27,33.27,0,0,1,6.54.65,29.63,29.63,0,0,1,5.6,1.61V163h-.92a17.64,17.64,0,0,0-5-2.71,17.07,17.07,0,0,0-6-1.1,15.43,15.43,0,0,0-2.15.15,8.59,8.59,0,0,0-2.06.55,4,4,0,0,0-1.51,1,2.24,2.24,0,0,0-.63,1.56,2.34,2.34,0,0,0,1,2,11.54,11.54,0,0,0,3.83,1.29l3.55.75a37.76,37.76,0,0,1,3.66,1A12.15,12.15,0,0,1,47,171,8.42,8.42,0,0,1,48.87,176.6Z"/><path class="cls-4" d="M78.31,187.14H54.06V153.61H78.31v6.49H62.66v5.78H77.18v6.49H62.66v8.28H78.31Z"/><path class="cls-4" d="M116.9,187.14H106.34l-9.12-12.29h-4v12.29h-8.6V153.61h14.5a32.72,32.72,0,0,1,5.11.34,11,11,0,0,1,4,1.46,8.86,8.86,0,0,1,3,2.92,8.37,8.37,0,0,1,1.11,4.49,10,10,0,0,1-1.72,6.06,13,13,0,0,1-4.92,3.89Zm-13.49-23.26a4.21,4.21,0,0,0-.52-2.16,3.48,3.48,0,0,0-1.78-1.42,6.4,6.4,0,0,0-2-.44c-.78-.05-1.68-.08-2.72-.08H93.21v9h2.66a25.5,25.5,0,0,0,3.46-.2,5,5,0,0,0,2.35-.92,4.39,4.39,0,0,0,1.31-1.55A5.09,5.09,0,0,0,103.41,163.88Z"/><path class="cls-4" d="M148.9,153.61l-12.23,33.53H127l-12.23-33.53h9.09l8.1,23.54,8.1-23.54Z"/><path class="cls-4" d="M171.63,187.14H152V181.2h5.49V159.56H152v-5.95h19.64v5.95h-5.5V181.2h5.5Z"/><path class="cls-4" d="M191.59,187.79a21,21,0,0,1-6.9-1.1,14.29,14.29,0,0,1-9-8.74,23,23,0,0,1-.06-14.77,15.51,15.51,0,0,1,3.47-5.56,14.75,14.75,0,0,1,5.41-3.45,19.94,19.94,0,0,1,7.06-1.21,27.51,27.51,0,0,1,3.82.24,26.11,26.11,0,0,1,3.14.61,23.5,23.5,0,0,1,2.74,1c.82.35,1.53.68,2.15,1v8.13h-1c-.42-.36-.95-.78-1.59-1.28a20.43,20.43,0,0,0-2.17-1.45,15.19,15.19,0,0,0-2.68-1.21,9.44,9.44,0,0,0-3.09-.5,10.32,10.32,0,0,0-3.47.58,8.46,8.46,0,0,0-3,1.9,9.36,9.36,0,0,0-2.15,3.39,14.31,14.31,0,0,0-.82,5.12,13.65,13.65,0,0,0,.89,5.26,9.15,9.15,0,0,0,2.24,3.33,8.28,8.28,0,0,0,3.06,1.76,11.24,11.24,0,0,0,3.34.53,10.78,10.78,0,0,0,3.12-.47,12.38,12.38,0,0,0,2.84-1.28,18.37,18.37,0,0,0,2.05-1.39c.63-.49,1.15-.92,1.56-1.27h.9v8c-.84.38-1.65.73-2.41,1.06a20.17,20.17,0,0,1-2.41.86q-1.65.46-3.09.72A25.39,25.39,0,0,1,191.59,187.79Z"/><path class="cls-4" d="M233.66,187.14H209.41V153.61h24.25v6.49H218v5.78h14.52v6.49H218v8.28h15.65Z"/><rect class="cls-5" x="20.05" y="32.67" width="64.28" height="64.28" rx="4.24" ry="4.24"/><rect class="cls-6" x="94.54" y="32.67" width="64.28" height="64.28" rx="4.24" ry="4.24"/><rect class="cls-7" x="169.03" y="32.67" width="64.28" height="64.28" rx="4.24" ry="4.24"/><path class="cls-1" d="M64.15,51.8a17.46,17.46,0,0,1,5.28,8.78h-1l-1.09-.16-.86-.14a8.11,8.11,0,0,0-1-.07,6.12,6.12,0,0,0-1.21.11,6.57,6.57,0,0,0,.92-3.83l.14-.54-.22-.09a6.45,6.45,0,0,0-1.82-3.46,6.74,6.74,0,0,0,.91-.59m17.41,2.78h0M44.9,65.05l.23.18-.28,0a1.12,1.12,0,0,1,0-.13m8.65,3.56a7.32,7.32,0,0,0,1.6,3.56l-.28.52a11.6,11.6,0,0,0-2.08-4h0a6.23,6.23,0,0,0,.74,0m11.54,5h0M53.28,41H50.45c-.92.12-1.84.21-2.75.37A24.15,24.15,0,0,0,28.13,60.63c-.16.86-.23,1.74-.34,2.62l-.09.5v2.83c.12.91.21,1.83.37,2.74A24.18,24.18,0,0,0,48.53,89.09c.64.09,1.28.16,1.92.23h2.83c.91-.12,1.84-.21,2.75-.37A24.16,24.16,0,0,0,75.59,69.69c.17-.86.23-1.74.35-2.61,0-.17.06-.34.08-.5V63.75c-.12-.92-.21-1.84-.37-2.75A24.18,24.18,0,0,0,55.19,41.23c-.64-.09-1.27-.15-1.91-.23ZM34,54.61a5.33,5.33,0,0,0,3.49-1.52,7.71,7.71,0,0,0,2.22-3,1.73,1.73,0,0,1,.3-.41c.39-.44.37-.8-.11-1.15-.19-.13-.4-.24-.71-.43,1-.63,2-1.27,3-1.79A20.71,20.71,0,0,1,51.89,44l.7,0a20.9,20.9,0,0,1,8.07,1.88c.31.14.33.31.24.58a1.17,1.17,0,0,1-1.17.78,1.71,1.71,0,0,1-.61-.11,10.47,10.47,0,0,1-1.22-.68,1.63,1.63,0,0,0-.66-.23h-.05a7.53,7.53,0,0,0-3.43,1.48,6,6,0,0,0-2,2.06,1,1,0,0,0,0,1.09c.3-.14.59-.29.89-.4a2.73,2.73,0,0,1,.69-.14h.11c.8,0,1.14.51.86,1.3a4,4,0,0,1-.39.8c-.42.67-.84,1-1.38,1a2.38,2.38,0,0,1-1-.3c-.43-.21-.85-.47-1.29-.68a1.62,1.62,0,0,0-.7-.18,1.34,1.34,0,0,0-.72.22c.23.36,0,.6-.25.78a6.73,6.73,0,0,1-3.42,1.21h-.44a4.32,4.32,0,0,0,.34.45c.21.23.45.44.65.68.47.59.36.86-.36,1a4,4,0,0,0-.76.24c-.41.2-.41.5,0,.74a2.06,2.06,0,0,0,1.17.36A2.11,2.11,0,0,0,47.7,56.4a.54.54,0,0,1,.26-.33,2.43,2.43,0,0,1,1.15-.31,2.12,2.12,0,0,1,1.53.69c.58.59,1.09,1.26,1.62,1.9a3.75,3.75,0,0,0,1.9,1.41,8.8,8.8,0,0,0,1.32.13,7.62,7.62,0,0,1-.16-1.64,2.69,2.69,0,0,1,2.55-2.12h0a2.09,2.09,0,0,1,1.05.48c.33.23.19.58,0,.83s-.64.61-1,.9c-.67.61-.64.75.2,1.11a1.57,1.57,0,0,1-.86,1c-.84.43-1.7.8-2.54,1.23-.5.25-1,.58-1.47.84a1.07,1.07,0,0,1-.49.14h-.06a4.8,4.8,0,0,1-2.57-1.08c-.85-.64-1.67-1.33-2.52-2a4.11,4.11,0,0,0-2.49-1,3.87,3.87,0,0,0-.48,0,.59.59,0,0,0-.14,0c-1.62.61-3.35,1.05-4.4,2.62a7.09,7.09,0,0,0-1.23,5.24A5.6,5.6,0,0,0,43.36,71a14.7,14.7,0,0,0,2.8.36,2.37,2.37,0,0,1,1.94,1,5.3,5.3,0,0,1,1.12,2.47c.35,1.93.63,3.87.94,5.81,0,.22.09.43.12.65a2.83,2.83,0,0,0,1.31,2.07,12,12,0,0,0,3.71,2.17,5.77,5.77,0,0,0,1.1.1h0c.77,0,1.23-.85,1.29-1.75a26.39,26.39,0,0,1,.16-2.67,17,17,0,0,1,2-5.21c1.22-2.28,2.53-4.52,3.8-6.78a6,6,0,0,0,.42-.89c.13-.38,0-.59-.25-.59a.77.77,0,0,0-.25,0c-.46.11-.89.3-1.35.42a9.34,9.34,0,0,1-1.55.34l-.22,0c-.62,0-.93-.34-1-1,0-.12,0-.24,0-.37,0-1,.33-1.41,1.15-1.41l.35,0c.79.1,1.57.32,2.35.49a5.06,5.06,0,0,0,1,.12,2.28,2.28,0,0,0,1-.21.27.27,0,0,1,.13,0l.19,0c.74.1,1.47.24,2.21.32a5.44,5.44,0,0,0,.57,0h.75A1.67,1.67,0,0,1,70.84,68c.12.46.19.93.32,1.38s.32.72.55.72.4-.14.67-.43l.15-.12a18,18,0,0,1-1.39,4.28,21.08,21.08,0,0,1-12.91,11.5c-.42.14-.85.25-1.28.35h-.16l-.36,0h0a1.18,1.18,0,0,1-.39.22,26,26,0,0,1-4.32.37c-6.38,0-11.83-2.57-16.28-7.86a20.05,20.05,0,0,1-4.35-9.53,1,1,0,0,1,0-.42A7.26,7.26,0,0,1,33,64.91a.84.84,0,0,0,.15-1.11,3.06,3.06,0,0,0-1.74-1.44.53.53,0,0,1-.4-.72,20.83,20.83,0,0,1,2.39-6.76.58.58,0,0,1,.4-.27H34Z"/><path class="cls-1" d="M143.79,70.17V80.39H110.32V70.17h5.56a7.39,7.39,0,0,0,7.07,5.3h8.21a7.39,7.39,0,0,0,7.07-5.3h5.56m6-6H132.52V68.1a1.36,1.36,0,0,1-1.36,1.37H123a1.36,1.36,0,0,1-1.36-1.37V64.17H104.32V82a4.44,4.44,0,0,0,4.44,4.44h36.58A4.44,4.44,0,0,0,149.79,82V64.17Z"/><path class="cls-1" d="M131.84,46.05h-9.57a2.9,2.9,0,0,0-2.91,2.9V53.4h-10.6a4.44,4.44,0,0,0-4.44,4.44v5h45.47v-5a4.44,4.44,0,0,0-4.45-4.44H134.75V49a2.9,2.9,0,0,0-2.91-2.9Zm-9.4,7.35V49.13h9.23V53.4Z"/><path class="cls-1" d="M201.39,53.2l12,5L201.56,63l-11.95-4.61,11.78-5.19m0-6.53L173.89,58.75l27.72,10.7,27.58-11.11L201.34,46.67Z"/><path class="cls-1" d="M215.81,72.25v1.36a25.65,25.65,0,0,1-13.7,4,31,31,0,0,1-14.43-3.86V72.56l11.77,4.55a6.17,6.17,0,0,0,2.16.4,6,6,0,0,0,2.24-.44l12-4.82m6-8.88-20.2,8.14-19.93-7.7V77.14a37.32,37.32,0,0,0,20.43,6.51,32.15,32.15,0,0,0,19.7-6.88V63.37Z"/><path class="cls-1" d="M225.48,58.61a.69.69,0,0,0-.68.69V73a.69.69,0,0,0,1.37,0V59.3a.69.69,0,0,0-.69-.69Z"/><path class="cls-1" d="M225.48,71.51a2.06,2.06,0,1,0,2.06,2.06,2.05,2.05,0,0,0-2.06-2.06Z"/><path class="cls-1" d="M224.39,74.46a.35.35,0,0,0-.35.34v6.86a.35.35,0,0,0,.35.35.35.35,0,0,0,.34-.35V74.8a.34.34,0,0,0-.34-.34Z"/><path class="cls-1" d="M225.42,74.46a.35.35,0,0,0-.35.34v6.86a.35.35,0,0,0,.35.35.35.35,0,0,0,.34-.35V74.8a.34.34,0,0,0-.34-.34Z"/><path class="cls-1" d="M226.65,74.46a.34.34,0,0,0-.34.34v6.86a.34.34,0,1,0,.68,0V74.8a.34.34,0,0,0-.34-.34Z"/></g></g></svg>