<svg xmlns="http://www.w3.org/2000/svg" xmlns:xlink="http://www.w3.org/1999/xlink" viewBox="0 0 97.84 80"><defs><style>.cls-1{fill:#f36c2e;}.cls-2{fill:none;stroke:#f36c2e;stroke-miterlimit:10;}.cls-3{fill:#4f5882;}.cls-4{fill:url(#linear-gradient);}.cls-5{fill:url(#linear-gradient-2);}.cls-6{fill:url(#linear-gradient-3);}.cls-7{fill:#fff;}</style><linearGradient id="linear-gradient" x1="14.96" y1="38.58" x2="14.96" y2="9.28" gradientUnits="userSpaceOnUse"><stop offset="0" stop-color="#414042"/><stop offset="1" stop-color="#5d6fc0"/></linearGradient><linearGradient id="linear-gradient-2" x1="48.91" y1="38.58" x2="48.91" y2="9.28" xlink:href="#linear-gradient"/><linearGradient id="linear-gradient-3" x1="82.87" y1="38.58" x2="82.87" y2="9.28" xlink:href="#linear-gradient"/></defs><title>Logo_1</title><g id="Слой_2" data-name="Слой 2"><g id="Слой_1-2" data-name="Слой 1"><path class="cls-1" d="M97.08,2.75l-1.22,0h0l-1.34,0h0l-2.74.08a.89.89,0,0,0-.29,0v0l-.75.16v.39l.79.11h0a1.12,1.12,0,0,0,.27,0l2.74.08h0l1.33.06h0l1.22.06a.54.54,0,0,0,0-1.07"/><polygon class="cls-1" points="95.37 1.86 94.99 1.16 94.99 1.16 94.82 0.84 94.81 0.84 94.35 0 93.39 0 94.52 2.73 94.52 2.85 95.86 2.8 95.86 2.73 95.55 2.18 95.55 2.18 95.38 1.86 95.37 1.86"/><polygon class="cls-1" points="95.86 3.76 94.52 3.7 94.52 3.8 93.39 6.72 94.34 6.72 94.69 6.05 94.69 6.05 94.86 5.73 94.86 5.73 94.86 5.73 95.3 4.87 95.31 4.87 95.47 4.55 95.46 4.55 95.85 3.8 95.86 3.76"/><polygon class="cls-1" points="91 2.07 90.53 1.95 90.72 3.09 90.72 3.1 91.49 2.95 91 2.07"/><polygon class="cls-1" points="90.72 3.49 90.53 4.7 91 4.59 91.52 3.6 90.72 3.48 90.72 3.49"/><path class="cls-1" d="M95.39,6.05a.16.16,0,1,0,0-.32h-.53l-.16.32Z"/><path class="cls-1" d="M96,4.55h-.56l-.17.32H96a.16.16,0,0,0,.16-.16A.16.16,0,0,0,96,4.55"/><path class="cls-1" d="M96,1.86h-.66l.18.32H96a.16.16,0,0,0,0-.32"/><path class="cls-1" d="M95.51,1.16a.16.16,0,0,0,0-.32h-.69l.17.32Z"/><path class="cls-2" d="M87.67,3.32a.86.86,0,1,1-.85-.85A.85.85,0,0,1,87.67,3.32Z"/><path class="cls-2" d="M83.17,3.32a.86.86,0,1,1-.85-.85A.85.85,0,0,1,83.17,3.32Z"/><path class="cls-2" d="M78.67,3.32a.85.85,0,1,1-.85-.85A.85.85,0,0,1,78.67,3.32Z"/><path class="cls-2" d="M74.18,3.32a.86.86,0,1,1-1.71,0,.85.85,0,0,1,.85-.85A.86.86,0,0,1,74.18,3.32Z"/><path class="cls-2" d="M69.68,3.32a.86.86,0,1,1-.86-.85A.85.85,0,0,1,69.68,3.32Z"/><path class="cls-2" d="M65.18,3.32a.86.86,0,1,1-.85-.85A.85.85,0,0,1,65.18,3.32Z"/><path class="cls-2" d="M60.68,3.32a.86.86,0,1,1-.85-.85A.85.85,0,0,1,60.68,3.32Z"/><path class="cls-2" d="M56.18,3.32a.85.85,0,1,1-.85-.85A.85.85,0,0,1,56.18,3.32Z"/><path class="cls-2" d="M51.69,3.32a.86.86,0,1,1-1.71,0,.85.85,0,0,1,.85-.85A.86.86,0,0,1,51.69,3.32Z"/><path class="cls-2" d="M47.19,3.32a.86.86,0,1,1-.86-.85A.85.85,0,0,1,47.19,3.32Z"/><path class="cls-2" d="M42.69,3.32a.86.86,0,1,1-.85-.85A.85.85,0,0,1,42.69,3.32Z"/><path class="cls-2" d="M38.19,3.32a.86.86,0,1,1-.85-.85A.85.85,0,0,1,38.19,3.32Z"/><path class="cls-2" d="M33.7,3.32a.86.86,0,1,1-1.71,0,.85.85,0,0,1,.85-.85A.86.86,0,0,1,33.7,3.32Z"/><path class="cls-2" d="M29.2,3.32a.86.86,0,1,1-1.71,0,.85.85,0,0,1,.85-.85A.86.86,0,0,1,29.2,3.32Z"/><path class="cls-2" d="M24.7,3.32a.86.86,0,1,1-.86-.85A.85.85,0,0,1,24.7,3.32Z"/><path class="cls-2" d="M20.2,3.32a.86.86,0,1,1-.85-.85A.85.85,0,0,1,20.2,3.32Z"/><path class="cls-2" d="M15.7,3.32a.86.86,0,1,1-.85-.85A.85.85,0,0,1,15.7,3.32Z"/><path class="cls-2" d="M11.21,3.32a.86.86,0,1,1-1.71,0,.85.85,0,0,1,.85-.85A.86.86,0,0,1,11.21,3.32Z"/><path class="cls-2" d="M6.71,3.32A.86.86,0,1,1,5,3.32a.85.85,0,0,1,.85-.85A.86.86,0,0,1,6.71,3.32Z"/><path class="cls-2" d="M2.21,3.32a.86.86,0,1,1-.86-.85A.85.85,0,0,1,2.21,3.32Z"/><path class="cls-1" d="M12.52,56a4.08,4.08,0,0,1-1.8,3.44A8,8,0,0,1,5.85,60.8a13.59,13.59,0,0,1-3.1-.31,16.24,16.24,0,0,1-2.47-.8V56.26h.4A8.78,8.78,0,0,0,6,58.16a8.42,8.42,0,0,0,.88-.06,3.6,3.6,0,0,0,.9-.19,2.32,2.32,0,0,0,.7-.44,1,1,0,0,0,.27-.77,1,1,0,0,0-.4-.81,2.71,2.71,0,0,0-1.17-.52c-.54-.13-1.1-.25-1.7-.36a13,13,0,0,1-1.69-.43A5.27,5.27,0,0,1,1.16,53a3.9,3.9,0,0,1-.79-2.5,3.82,3.82,0,0,1,1.79-3.26A7.82,7.82,0,0,1,6.77,46a14.5,14.5,0,0,1,2.79.27,12.45,12.45,0,0,1,2.39.69v3.29h-.39a7.75,7.75,0,0,0-2.12-1.15,7.13,7.13,0,0,0-2.57-.47,7,7,0,0,0-.91.06,3.28,3.28,0,0,0-.88.24,1.68,1.68,0,0,0-.65.43,1,1,0,0,0-.27.67,1,1,0,0,0,.44.87,4.62,4.62,0,0,0,1.63.56l1.51.31c.49.11,1,.25,1.57.43a5.2,5.2,0,0,1,2.42,1.46A3.57,3.57,0,0,1,12.52,56Z"/><path class="cls-1" d="M21.46,60.45a10.3,10.3,0,0,1-1.18.22,13.1,13.1,0,0,1-1.53.08,4.62,4.62,0,0,1-3-.82,3.45,3.45,0,0,1-1-2.79v-5H13.33V49.74h1.43V46.66h3.47v3.08h3.23v2.35H18.23v3.83c0,.38,0,.71,0,1a2,2,0,0,0,.15.76,1,1,0,0,0,.48.54,2,2,0,0,0,1,.2,2.76,2.76,0,0,0,.7-.12,3.36,3.36,0,0,0,.61-.21h.29Z"/><path class="cls-1" d="M34.06,60.54H30.59V59.35a9.92,9.92,0,0,1-1.75,1.11,4.49,4.49,0,0,1-1.91.38,3.58,3.58,0,0,1-2.75-1,4.31,4.31,0,0,1-1-3v-7h3.47V55.1c0,.54,0,1,0,1.36a2.46,2.46,0,0,0,.25.9,1.07,1.07,0,0,0,.55.52,2.61,2.61,0,0,0,1,.16,3.28,3.28,0,0,0,1-.16,4.25,4.25,0,0,0,1-.48V49.74h3.47Z"/><path class="cls-1" d="M47.1,60.54H43.62V59.42A7.58,7.58,0,0,1,42,60.49a4.33,4.33,0,0,1-1.79.35A3.8,3.8,0,0,1,37,59.32a6.49,6.49,0,0,1-1.18-4.1,6.77,6.77,0,0,1,.4-2.43A5.56,5.56,0,0,1,37.32,51a4.5,4.5,0,0,1,1.58-1.12,4.78,4.78,0,0,1,1.86-.39,5,5,0,0,1,1.59.2,9,9,0,0,1,1.27.53v-4.6H47.1Zm-3.48-3V52.26a3.71,3.71,0,0,0-.76-.22,5.24,5.24,0,0,0-.74-.07,2.44,2.44,0,0,0-2,.86,3.63,3.63,0,0,0-.69,2.36,3.88,3.88,0,0,0,.55,2.31,2.1,2.1,0,0,0,1.76.71,3.32,3.32,0,0,0,1-.17A3.38,3.38,0,0,0,43.62,57.57Z"/><path class="cls-1" d="M60.24,55.78H52.32a2.48,2.48,0,0,0,1,1.94,4.31,4.31,0,0,0,2.62.68A6,6,0,0,0,58,58a6.72,6.72,0,0,0,1.62-.84H60v2.77a12.58,12.58,0,0,1-2.21.69,11.69,11.69,0,0,1-2.3.21,7.53,7.53,0,0,1-5-1.46,5.14,5.14,0,0,1-1.73-4.17A5.54,5.54,0,0,1,50.46,51,6.24,6.24,0,0,1,55,49.41a5.34,5.34,0,0,1,4,1.33,5.17,5.17,0,0,1,1.33,3.83Zm-3.44-2a2.41,2.41,0,0,0-.54-1.63,2.06,2.06,0,0,0-1.59-.55,2.5,2.5,0,0,0-1.64.52,2.21,2.21,0,0,0-.72,1.66Z"/><path class="cls-1" d="M72.93,60.54H69.46V55.19c0-.44,0-.87-.06-1.31a2.78,2.78,0,0,0-.23-1,1.15,1.15,0,0,0-.57-.52,2.56,2.56,0,0,0-1-.17,3,3,0,0,0-1,.16,4.84,4.84,0,0,0-1,.49v7.65H62.09V49.74h3.47v1.2a9.41,9.41,0,0,1,1.77-1.11,4.5,4.5,0,0,1,1.89-.38,3.66,3.66,0,0,1,2.73,1,4.22,4.22,0,0,1,1,3Z"/><path class="cls-1" d="M82.5,60.45a10.3,10.3,0,0,1-1.18.22,13.1,13.1,0,0,1-1.53.08,4.62,4.62,0,0,1-3-.82,3.45,3.45,0,0,1-1-2.79v-5H74.38V49.74H75.8V46.66h3.47v3.08H82.5v2.35H79.27v3.83c0,.38,0,.71,0,1a2.18,2.18,0,0,0,.15.76,1,1,0,0,0,.48.54,2,2,0,0,0,1,.2,2.76,2.76,0,0,0,.7-.12,3.36,3.36,0,0,0,.61-.21h.29Z"/><path class="cls-1" d="M88.42,46.63l-3.14,4.75-1.75-.92,2.12-5.28Z"/><path class="cls-1" d="M97.84,57.12a3.12,3.12,0,0,1-1.5,2.69,7.14,7.14,0,0,1-4.11,1,11.63,11.63,0,0,1-2.61-.27,9.72,9.72,0,0,1-1.88-.6V57.13h.31l.6.4a6,6,0,0,0,1,.46,7,7,0,0,0,1.22.38,6.22,6.22,0,0,0,1.46.16,3.64,3.64,0,0,0,1.51-.23.71.71,0,0,0,.49-.66.61.61,0,0,0-.29-.58,4,4,0,0,0-1.09-.34c-.26,0-.61-.12-1-.18a10.75,10.75,0,0,1-1.19-.25,4.26,4.26,0,0,1-2.19-1.2,3,3,0,0,1-.71-2,3.06,3.06,0,0,1,1.48-2.59,6.91,6.91,0,0,1,4-1,10.93,10.93,0,0,1,2.32.24,9.79,9.79,0,0,1,1.74.52V53h-.3a7.15,7.15,0,0,0-1.75-.87,6.3,6.3,0,0,0-2-.33,3.85,3.85,0,0,0-1.41.23q-.57.24-.57.66a.7.7,0,0,0,.26.58,3.47,3.47,0,0,0,1.22.41c.35.07.73.14,1.14.2s.82.16,1.23.26a3.89,3.89,0,0,1,2,1.12A2.85,2.85,0,0,1,97.84,57.12Z"/><path class="cls-3" d="M13.44,74.9a4.38,4.38,0,0,1-1.91,3.67A8.6,8.6,0,0,1,6.33,80,14.63,14.63,0,0,1,3,79.65,17.89,17.89,0,0,1,.37,78.8V75.13H.8a9.24,9.24,0,0,0,2.74,1.5,8.89,8.89,0,0,0,2.91.53,7.54,7.54,0,0,0,.94-.07,3.66,3.66,0,0,0,1-.2,2.34,2.34,0,0,0,.74-.46,1.07,1.07,0,0,0,.29-.82A1.11,1.11,0,0,0,9,74.74a3,3,0,0,0-1.25-.56c-.57-.14-1.18-.27-1.82-.39a14.79,14.79,0,0,1-1.8-.45,5.74,5.74,0,0,1-2.78-1.7A4.19,4.19,0,0,1,.46,69a4.1,4.1,0,0,1,1.92-3.49A8.36,8.36,0,0,1,7.3,64.14a15.6,15.6,0,0,1,3,.29,13.47,13.47,0,0,1,2.55.74v3.52h-.42a7.84,7.84,0,0,0-2.26-1.24A7.85,7.85,0,0,0,7.41,67a6.55,6.55,0,0,0-1,.07,4,4,0,0,0-.94.25,1.77,1.77,0,0,0-.68.47,1,1,0,0,0-.29.71,1.06,1.06,0,0,0,.46.93A5.14,5.14,0,0,0,6.73,70l1.61.34a16.88,16.88,0,0,1,1.67.45,5.51,5.51,0,0,1,2.59,1.57A3.82,3.82,0,0,1,13.44,74.9Z"/><path class="cls-3" d="M26.86,79.7h-11V64.42h11v3H19.73V70h6.62v3H19.73v3.78h7.13Z"/><path class="cls-3" d="M44.45,79.7H39.64l-4.16-5.6H33.65v5.6H29.73V64.42h6.61a15.52,15.52,0,0,1,2.33.15,5.05,5.05,0,0,1,1.83.67,3.88,3.88,0,0,1,1.37,1.33,3.78,3.78,0,0,1,.51,2.05,4.51,4.51,0,0,1-.79,2.76,5.89,5.89,0,0,1-2.24,1.77ZM38.3,69.1a1.93,1.93,0,0,0-.23-1,1.58,1.58,0,0,0-.81-.64,2.9,2.9,0,0,0-.94-.2c-.35,0-.77,0-1.24,0H33.65v4.12h1.22a10.06,10.06,0,0,0,1.58-.1,2.2,2.2,0,0,0,1.06-.42,1.86,1.86,0,0,0,.6-.7A2.31,2.31,0,0,0,38.3,69.1Z"/><path class="cls-3" d="M59,64.42,53.47,79.7H49.05L43.48,64.42h4.14l3.7,10.73L55,64.42Z"/><path class="cls-3" d="M69.4,79.7h-9V77H63V67.13H60.45V64.42h9v2.71H66.9V77h2.5Z"/><path class="cls-3" d="M78.51,80a9.63,9.63,0,0,1-3.15-.5A6.85,6.85,0,0,1,72.88,78a6.75,6.75,0,0,1-1.61-2.49,9.58,9.58,0,0,1-.57-3.44,9.31,9.31,0,0,1,.55-3.29,7,7,0,0,1,1.58-2.54,6.8,6.8,0,0,1,2.47-1.57,9,9,0,0,1,3.22-.55,11.58,11.58,0,0,1,1.74.11,11.32,11.32,0,0,1,1.43.28,8.51,8.51,0,0,1,1.24.44l1,.44V69.1h-.46c-.19-.17-.43-.36-.72-.58a9,9,0,0,0-1-.67,6.76,6.76,0,0,0-1.22-.55,4.34,4.34,0,0,0-1.41-.22,4.64,4.64,0,0,0-1.58.26,3.87,3.87,0,0,0-1.39.86,4.34,4.34,0,0,0-1,1.55,6.46,6.46,0,0,0-.37,2.34,6.19,6.19,0,0,0,.4,2.39,4.37,4.37,0,0,0,1,1.52,3.74,3.74,0,0,0,1.39.8,5.12,5.12,0,0,0,1.52.24,4.93,4.93,0,0,0,1.42-.21,5.47,5.47,0,0,0,1.3-.58,8.15,8.15,0,0,0,.94-.64c.28-.22.52-.42.7-.58h.42v3.66l-1.1.48a9.52,9.52,0,0,1-1.1.39q-.75.21-1.41.33A11.94,11.94,0,0,1,78.51,80Z"/><path class="cls-3" d="M97.68,79.7H86.63V64.42H97.68v3H90.55V70h6.62v3H90.55v3.78h7.13Z"/><rect class="cls-4" x="0.3" y="9.28" width="29.3" height="29.3" rx="1.93" ry="1.93"/><rect class="cls-5" x="34.26" y="9.28" width="29.3" height="29.3" rx="1.93" ry="1.93"/><rect class="cls-6" x="68.22" y="9.28" width="29.3" height="29.3" rx="1.93" ry="1.93"/><path class="cls-7" d="M20,15.49a10.41,10.41,0,0,1,1.45,1.07,9.94,9.94,0,0,1,3.27,5.81c0,.27.07.53.11.8l0,.34v.89l-.52.39a1.74,1.74,0,0,0-1.54-1.05H22.2c-.21,0-.42-.06-.63-.09l-.36-.06-.22,0a1.24,1.24,0,0,0-.47.1h-.05l-.26,0-.32-.07a6.4,6.4,0,0,0-.83-.17l-.29,0a1.47,1.47,0,0,0-1.08.42A1.7,1.7,0,0,0,17.25,25a1.63,1.63,0,0,0,0,.31,1.43,1.43,0,0,0,1.37,1.32c-.37.64-.73,1.27-1.07,1.92a8.68,8.68,0,0,0-1,2.69,7.7,7.7,0,0,0-.07.92v.19a4.51,4.51,0,0,1-1-.65l-.18-.13c-.18-.13-.19-.19-.19-.24a2.56,2.56,0,0,0-.05-.27V31l-.12-.76c-.1-.64-.2-1.27-.32-1.91a3.39,3.39,0,0,0-.71-1.58,2.09,2.09,0,0,0-1.66-.84,6.9,6.9,0,0,1-1.08-.14,1.56,1.56,0,0,1-1.24-1.24,2.16,2.16,0,0,1,.41-1.66,2.29,2.29,0,0,1,1.22-.71l.18-.06h.05a.87.87,0,0,1,.53.24l.57.44.58.46a3.17,3.17,0,0,0,1.7.69h.1a1.62,1.62,0,0,0,.71-.18l.34-.21.3-.17.54-.26c.21-.1.42-.19.62-.3a1.69,1.69,0,0,0,.9-1.08l.14-.53a1.26,1.26,0,0,0,.34-1,1.15,1.15,0,0,0-.5-.85,1.83,1.83,0,0,0-1.06-.4h-.07a2.32,2.32,0,0,0-1.89,1.18l0-.05c-.1-.13-.2-.25-.31-.37a1.73,1.73,0,0,0,1.32-.92,2.41,2.41,0,0,0,.27-.56,1.4,1.4,0,0,0-.14-1.34,1,1,0,0,0-.13-.16,2.36,2.36,0,0,1,.59-.26l.08.06a3.23,3.23,0,0,0,.53.27,1.73,1.73,0,0,0,.62.11,1.52,1.52,0,0,0,1.48-1,1.56,1.56,0,0,0,.08-.42m-12,1.34.35.21a2.66,2.66,0,0,1-.65.79,1.5,1.5,0,0,1-1,.45h0a10,10,0,0,1,1-1.22l.24-.23M4.79,23.57a1.46,1.46,0,0,0,.3.17,3.15,3.15,0,0,0-.3.47v-.64M15.45,13.08H14.16c-.42.05-.84.1-1.25.17A10.79,10.79,0,0,0,7,16.35,10.71,10.71,0,0,0,4,22c-.08.39-.11.79-.16,1.19,0,.08,0,.15,0,.23v1.29c0,.41.1.83.17,1.25a11,11,0,0,0,9.33,9l.87.11h1.29c.42-.06.84-.1,1.25-.17a10.8,10.8,0,0,0,5.94-3.11,10.68,10.68,0,0,0,3-5.67c.08-.4.11-.8.16-1.19,0-.08,0-.16,0-.23V23.45c-.06-.42-.1-.84-.17-1.25a11,11,0,0,0-9.33-9l-.87-.1Zm-8.78,6.2a2.43,2.43,0,0,0,1.59-.69,3.63,3.63,0,0,0,1-1.34.59.59,0,0,1,.13-.19c.18-.2.17-.37-.05-.52a2.61,2.61,0,0,0-.32-.2c.47-.29.91-.58,1.36-.82a9.48,9.48,0,0,1,4.42-1.06h.31a9.53,9.53,0,0,1,3.68.86c.15.07.16.14.11.27a.52.52,0,0,1-.53.35.72.72,0,0,1-.28,0,5.09,5.09,0,0,1-.55-.31.76.76,0,0,0-.3-.1h0a3.4,3.4,0,0,0-1.56.67,2.7,2.7,0,0,0-.93.94.46.46,0,0,0,0,.49l.41-.17a1.08,1.08,0,0,1,.31-.07h0c.36,0,.52.23.39.59a1.35,1.35,0,0,1-.18.36c-.19.31-.38.45-.63.45a1.08,1.08,0,0,1-.47-.13c-.2-.1-.39-.22-.59-.31a.72.72,0,0,0-.32-.08.68.68,0,0,0-.32.09c.1.17,0,.28-.12.36a3,3,0,0,1-1.56.55h-.2c.07.09.11.16.16.21s.2.2.29.31c.22.27.17.39-.16.47a2,2,0,0,0-.35.11c-.18.09-.18.23,0,.34a1,1,0,0,0,1.47-.56A.22.22,0,0,1,13,20a1,1,0,0,1,.52-.14,1,1,0,0,1,.7.31c.26.27.49.58.74.87a1.71,1.71,0,0,0,.86.64,4.35,4.35,0,0,0,.6.06,3.43,3.43,0,0,1-.07-.75,1.24,1.24,0,0,1,1.17-1h0a.94.94,0,0,1,.48.21c.15.11.09.27,0,.38a4.17,4.17,0,0,1-.43.41c-.3.28-.29.35.09.51a.73.73,0,0,1-.39.45c-.38.2-.78.37-1.16.56-.23.12-.44.26-.67.39a.56.56,0,0,1-.23.06h0A2.27,2.27,0,0,1,14,22.46l-1.15-.91a1.86,1.86,0,0,0-1.14-.44h-.28a3.64,3.64,0,0,0-2,1.2,3.15,3.15,0,0,0-.56,2.38,2.55,2.55,0,0,0,2,2.05,7.88,7.88,0,0,0,1.27.16,1.09,1.09,0,0,1,.89.47,2.42,2.42,0,0,1,.51,1.13c.16.88.29,1.76.43,2.65a2.93,2.93,0,0,1,.05.29,1.33,1.33,0,0,0,.6.95,5.65,5.65,0,0,0,1.69,1,2.81,2.81,0,0,0,.5,0h0c.35,0,.56-.38.58-.79s0-.82.08-1.22a7.82,7.82,0,0,1,.91-2.38C19,28,19.61,27,20.19,26a2.57,2.57,0,0,0,.19-.41c.06-.17,0-.26-.11-.26h-.12l-.61.2a4.27,4.27,0,0,1-.71.15h-.1c-.28,0-.42-.15-.46-.46a1.11,1.11,0,0,1,0-.17c0-.44.15-.65.52-.65h.16c.36.05.72.15,1.08.23a2.31,2.31,0,0,0,.46.05,1.08,1.08,0,0,0,.46-.09l.06,0h.09l1,.15h.61a.77.77,0,0,1,.77.65c.05.21.08.42.14.63s.15.33.25.33.18-.07.31-.2,0,0,.07,0A8.49,8.49,0,0,1,23.59,28a9.59,9.59,0,0,1-5.88,5.25l-.58.16h-.26a.42.42,0,0,1-.17.1,11.35,11.35,0,0,1-2,.17,9.32,9.32,0,0,1-7.41-3.58,9.13,9.13,0,0,1-2-4.35.41.41,0,0,1,0-.19A3.26,3.26,0,0,1,6.21,24a.4.4,0,0,0,.06-.51,1.34,1.34,0,0,0-.79-.65c-.18-.07-.22-.15-.18-.33A9.5,9.5,0,0,1,6.39,19.4a.28.28,0,0,1,.18-.12h.1Z"/><path class="cls-7" d="M58.45,24.64v7.1a1,1,0,0,1-1,1H40.74a1,1,0,0,1-1-1v-7.1h5.87v.79a1.63,1.63,0,0,0,1.62,1.63H51a1.63,1.63,0,0,0,1.63-1.63v-.79h5.87m1-1H51.58v1.79a.63.63,0,0,1-.63.63H47.21a.63.63,0,0,1-.62-.63V23.64H38.72v8.1a2,2,0,0,0,2,2H57.42a2,2,0,0,0,2-2v-8.1Z"/><path class="cls-7" d="M57.42,19.73a1,1,0,0,1,1,1V22H39.72V20.76a1,1,0,0,1,1-1H57.42m-6.15-4.35H46.9a1.32,1.32,0,0,0-1.32,1.32v2H40.74a2,2,0,0,0-2,2V23H59.45V20.76a2,2,0,0,0-2-2H52.59v-2a1.32,1.32,0,0,0-1.32-1.32ZM47,18.73V16.78h4.21v1.95Z"/><path class="cls-7" d="M83,16.75,93,21l-9.94,4-10-3.86L83,16.75m0-1.08-12.51,5.5,12.63,4.88L95.65,21,83,15.67Z"/><path class="cls-7" d="M91.28,24.76v4.12a13.62,13.62,0,0,1-8,2.64A16.12,16.12,0,0,1,75,29V24.94l7.72,3,.37.14.37-.14,7.83-3.16m1-1.48L83.07,27,74,23.48v6.07a17,17,0,0,0,9.31,3,14.65,14.65,0,0,0,9-3.14v-6.1Z"/><path class="cls-7" d="M94,21.11a.31.31,0,0,0-.32.31v6.26a.32.32,0,0,0,.63,0V21.42a.31.31,0,0,0-.31-.31Z"/><path class="cls-7" d="M94,27a.94.94,0,1,0,.94.93A.94.94,0,0,0,94,27Z"/><path class="cls-7" d="M93.46,28.33a.16.16,0,0,0-.16.16v3.13a.16.16,0,0,0,.16.15.15.15,0,0,0,.15-.15V28.49a.16.16,0,0,0-.15-.16Z"/><path class="cls-7" d="M93.93,28.33a.16.16,0,0,0-.16.16v3.13a.16.16,0,0,0,.16.15.15.15,0,0,0,.15-.15V28.49a.16.16,0,0,0-.15-.16Z"/><path class="cls-7" d="M94.49,28.33a.16.16,0,0,0-.16.16v3.13a.16.16,0,0,0,.16.15.15.15,0,0,0,.15-.15V28.49a.16.16,0,0,0-.15-.16Z"/></g></g></svg>