<svg xmlns="http://www.w3.org/2000/svg" viewBox="0 0 42.38 12"><defs><style>.cls-1{fill:#f36c2e;}</style></defs><title>Download_PDF</title><g id="Layer_2" data-name="Layer 2"><g id="Слой_1" data-name="Слой 1"><path class="cls-1" d="M37.67,11.09V6.86l.12-.13h3.87A.42.42,0,0,0,42,6.6a.45.45,0,0,0,.12-.31A.45.45,0,0,0,42,6a.42.42,0,0,0-.32-.13H37.79l-.12-.11V2.48l.12-.11h4.12a.43.43,0,0,0,.33-.15.45.45,0,0,0,.14-.33.41.41,0,0,0-.14-.32.45.45,0,0,0-.33-.14H37.34a.8.8,0,0,0-.79.8v8.86a.56.56,0,0,0,.56.56.52.52,0,0,0,.39-.17A.54.54,0,0,0,37.67,11.09Zm-7.86.7c3.32,0,5-1.8,5-5.39,0-3.41-1.67-5.11-5-5.11a12.6,12.6,0,0,0-1.69.1.79.79,0,0,0-.57.3.93.93,0,0,0-.22.61v8.48a.91.91,0,0,0,.23.61.86.86,0,0,0,.56.3A12.6,12.6,0,0,0,29.81,11.79ZM28.58,2.32a7.54,7.54,0,0,1,1.23-.09,3.87,3.87,0,0,1,3,1,4.47,4.47,0,0,1,1,3.16,5,5,0,0,1-.94,3.4,3.82,3.82,0,0,1-3,1,6.51,6.51,0,0,1-1.23-.1l-.13-.14V2.46Zm-8.53,8.77V7.73l.13-.1c.56,0,1.09.07,1.6.07a4.34,4.34,0,0,0,2.88-.84,3,3,0,0,0,1-2.46,2.81,2.81,0,0,0-1-2.31,4.54,4.54,0,0,0-2.89-.8c-.66,0-1.34,0-2.06.11a.86.86,0,0,0-.56.3.88.88,0,0,0-.23.6v8.79a.57.57,0,0,0,.16.39.54.54,0,0,0,.4.17.56.56,0,0,0,.56-.56Zm.13-8.78a11,11,0,0,1,1.51-.11,3.35,3.35,0,0,1,2.14.58,2.05,2.05,0,0,1,.72,1.7,2.09,2.09,0,0,1-.74,1.72,3.27,3.27,0,0,1-2.12.6,11.46,11.46,0,0,1-1.51-.09l-.13-.14V2.45Z"/><path class="cls-1" d="M1,9H1V1H5.29c.15,0,.29.14.44.28a.43.43,0,0,0,.6,0,.43.43,0,0,0,0-.59h0L5.73.09h0L5.52,0H.79A.79.79,0,0,0,0,.79V9.24A.75.75,0,0,0,.79,10H1a.38.38,0,0,0,.42-.39h0C1.39,9.37,1.2,9.18,1,9Z"/><path class="cls-1" d="M9.93,4.42h0L7.63,2.09h0L7.43,2H2.79A.79.79,0,0,0,2,2.79v8.42a.79.79,0,0,0,.79.79H9.21a.79.79,0,0,0,.79-.79V4.61ZM8,3.34,9.66,5H8ZM9,11H3V3H7V6H9Z"/></g></g></svg>