<svg xmlns="http://www.w3.org/2000/svg" viewBox="0 0 28.54 20.82"><title>Ic_Quotes</title><g id="Слой_2" data-name="Слой 2"><g id="Слой_1-2" data-name="Слой 1"><path d="M22.63,0c-3.95,0-6,2-6,5.54s2.09,5.42,6,5.42a3.37,3.37,0,0,0,2.71-1.47l.74.37A6.05,6.05,0,0,0,25,12.07c-1.61,3.45-5,5.55-8.26,6.9l.86,1.85c6-2.59,11-6,11-15.28C28.54,2.22,26.32,0,22.63,0Z"/><path d="M6.16,0C2.22,0,0,2,0,5.54S2.22,11,6.16,11A3.57,3.57,0,0,0,8.87,9.49l.62.37a9.61,9.61,0,0,0-1,2.21c-1.72,3.45-5,5.55-8.38,6.9l1,1.85c6-2.59,11-6,11-15.28C12.07,2.22,9.73,0,6.16,0Z"/></g></g></svg>