<svg xmlns="http://www.w3.org/2000/svg" viewBox="0 0 48 48"><defs><style>.cls-1{opacity:0;}.cls-2{fill:#ccc;}.cls-3{fill:#0e84bf;}</style></defs><title>Control_Telegram_Default</title><g id="Слой_2" data-name="Слой 2"><g id="Слой_1-2" data-name="Слой 1"><g class="cls-1"><circle class="cls-2" cx="24" cy="24" r="24"/></g><path class="cls-2" d="M24,4H22.79c-.26,0-.53,0-.79.06l.1,1C22.73,5,23.37,5,24,5V4Zm-4,.4-.52.1H19l-.15,0h-.3l-.48.14.29,1c.61-.18,1.22-.34,1.84-.46L20,4.4ZM16.21,5.57c-.46.2-.91.41-1.34.63h-.1l-.06,0h-.14l-.16.08.48.88c.55-.3,1.13-.58,1.71-.83l-.39-.92Zm-3.5,1.92-.4.28H12c-.3.23-.59.46-.87.7l.64.77a16.7,16.7,0,0,1,1.51-1.15l-.56-.83ZM9.65,10.06c-.21.22-.42.45-.62.68h-.2v0h0l-.48.58.79.62a17.06,17.06,0,0,1,1.25-1.43l-.72-.7ZM7.17,13.19c-.16.24-.31.49-.45.74h0c-.18.29-.34.6-.5.9l.89.46c.29-.56.61-1.12,1-1.65l-.84-.54ZM5.36,16.75a2.49,2.49,0,0,0-.11.29h0c-.16.44-.3.88-.43,1.33h0a.74.74,0,0,1,0,.14l1,.26c.17-.6.37-1.21.6-1.8l-.93-.36ZM4.29,20.6q-.17,1-.24,2l1,.07c0-.63.12-1.26.22-1.88l-1-.17ZM5,24.55l-1,0,0,.7H4v0H4v0h0v0h0v0h0c0,.22,0,.45.07.67h0l1-.12c-.08-.63-.13-1.27-.15-1.9Zm.48,3.76-1,.23a1.17,1.17,0,0,0,.05.2h0q.11.43.24.87h.06l.18.54L6,30.14c-.2-.6-.38-1.21-.52-1.83ZM6.72,31.9l-.91.42c.06.15.13.29.2.43H6c.22.45.46.89.71,1.32l.86-.5a18,18,0,0,1-.87-1.69Zm1.91,3.28-.8.59c.29.4.6.8.93,1.18H9l.08.09.75-.66c-.42-.48-.82-1-1.2-1.48ZM11.16,38l-.67.73c.4.37.81.72,1.24,1.06H12l.59-.8c-.5-.38-1-.79-1.46-1.21Zm3,2.27-.52.86a19.8,19.8,0,0,0,1.76.94l.43-.9a17.9,17.9,0,0,1-1.67-.9Zm3.43,1.63-.34.94q.95.33,1.92.57l.24-1a18.2,18.2,0,0,1-1.82-.54Zm3.68.9-.14,1a18.62,18.62,0,0,0,2,.18l0-1a17,17,0,0,1-1.89-.17Zm5.68,0c-.62.09-1.26.16-1.89.2l.06,1,.46,0h.29l.31,0h.93l-.16-1Zm3.67-1c-.59.22-1.2.42-1.81.58l.25,1h.2c.58-.16,1.15-.34,1.71-.55l-.35-.94Zm3.4-1.68a18,18,0,0,1-1.66.93l.44.89h.1l.9-.48h.25l.5-.3-.53-.85Zm3-2.32c-.46.43-.94.85-1.44,1.24l.61.79.44-.35h1.08l-.69-.72Zm2.48-2.87a18.36,18.36,0,0,1-1.17,1.5l.76.65q.4-.46.78-1h0v0h.19l.25-.36-.82-.57Zm1.87-3.3c-.25.57-.54,1.14-.85,1.69l.87.5A17.53,17.53,0,0,0,42.32,32l-.91-.4ZM42.57,28a17.05,17.05,0,0,1-.49,1.83l1,.31q.3-.91.51-1.86h0l-1-.21ZM43,24.25c0,.63,0,1.27-.12,1.89l1,.11a1.1,1.1,0,0,0,0-.18h0c0-.36.06-.72.08-1.08h0v0h0c0-.16,0-.33,0-.5Zm.65-4-1,.18c.12.62.2,1.26.26,1.89l1-.09a18.5,18.5,0,0,0-.28-2Zm-1.12-3.83-.93.38a18,18,0,0,1,.63,1.79l1-.28L43.07,18h0v0h0l0-.09h0v-.05h0v0h0v0h0c0-.1-.07-.2-.1-.29h0v0h0v0h0L42.72,17h-.09l-.1-.27Zm-1.88-3.53-.83.56a19,19,0,0,1,1,1.63l.88-.47c-.07-.13-.14-.26-.22-.39H41.4v0h0c-.19-.34-.39-.67-.61-1h-.06l-.07-.11ZM38.12,9.84l-.71.7A18.93,18.93,0,0,1,38.69,12l.77-.63c-.14-.19-.3-.36-.45-.54h-.25c-.21-.23-.42-.45-.64-.67ZM35,7.31l-.56.84A16.65,16.65,0,0,1,36,9.27l.64-.77c-.39-.32-.78-.61-1.19-.9h0l-.12-.08h-.07l-.06,0H35ZM31.49,5.45l-.37.93a16.69,16.69,0,0,1,1.72.8l.47-.89-.77-.38h-.07c-.32-.15-.65-.3-1-.43ZM27.66,4.33l-.18,1a16.42,16.42,0,0,1,1.84.44l.28-1c-.63-.19-1.28-.34-1.94-.47ZM24,4V5c.53,0,1.07,0,1.59.07l.09-1-.24,0h-.23l-.79,0H24Z"/><path class="cls-3" d="M23.47,28.8,21.19,31a1.18,1.18,0,0,1-.93.39.47.47,0,0,1-.48-.38L18,25.67a.38.38,0,0,0-.31-.31l-4.06-1.27a2.53,2.53,0,0,1-.6-.28A.42.42,0,0,1,13,23.1a2.85,2.85,0,0,1,.79-.5l5-1.93,12.67-4.89a.91.91,0,0,1,1.34,1,15,15,0,0,1-.32,1.65q-1.37,6.49-2.75,13c-.22,1-.95,1.3-1.79.68L23.68,29Zm-3.18,1.31h0a.53.53,0,0,0,0-.12c.09-1,.19-2,.26-2.95a.75.75,0,0,1,.26-.52L24.79,23l4.31-3.9a1.19,1.19,0,0,0,.19-.33,1.13,1.13,0,0,0-.4,0,1.54,1.54,0,0,0-.48.24l-9.53,6a.29.29,0,0,0-.15.4c.24.68.45,1.36.67,2C19.7,28.31,20,29.21,20.29,30.11Z"/></g></g></svg>