<svg xmlns="http://www.w3.org/2000/svg" viewBox="0 0 48 48"><defs><style>.cls-1{fill:#50a628;}.cls-2{fill:#fff;}</style></defs><title>Control_Whatsapp_Active</title><g id="Слой_2" data-name="Слой 2"><g id="Слой_1-2" data-name="Слой 1"><path class="cls-1" d="M48,24A23.84,23.84,0,0,1,24.32,48a23.35,23.35,0,0,1-11.84-3.21L0,47.67,3.81,36A24.19,24.19,0,0,1,.64,24,23.85,23.85,0,0,1,24.32,0,23.84,23.84,0,0,1,48,24Z"/><path class="cls-2" d="M18.18,15.68h.2c.67-.11,1,.25,1.22.82.41,1,.82,2,1.28,3a1.27,1.27,0,0,1-.17,1.41c-.29.38-.6.73-.91,1.1a.65.65,0,0,0-.09.9,12,12,0,0,0,6.17,5.24.64.64,0,0,0,.85-.24c.44-.52.86-1.05,1.28-1.57s.57-.53,1.1-.29c1.19.54,2.36,1.12,3.55,1.67a.68.68,0,0,1,.37.67,3.45,3.45,0,0,1-2.24,3.41,4.33,4.33,0,0,1-3.31.31c-1.38-.47-2.77-.93-4.1-1.52a12.69,12.69,0,0,1-3.91-2.91,20.13,20.13,0,0,1-3.89-5.32,5.47,5.47,0,0,1-.3-4.29A4.83,4.83,0,0,1,16.77,16,1.7,1.7,0,0,1,18.18,15.68Z"/></g></g></svg>