<svg xmlns="http://www.w3.org/2000/svg" viewBox="0 0 48 48"><defs><style>.cls-1{fill:#00aae8;}.cls-2{fill:#fff;}</style></defs><title>Control_Skype_Active</title><g id="Слой_2" data-name="Слой 2"><g id="Слой_1-2" data-name="Слой 1"><path class="cls-1" d="M46,30.12A22.51,22.51,0,0,0,46.86,24,22.87,22.87,0,0,0,24,1.14,22.51,22.51,0,0,0,17.88,2,11.42,11.42,0,0,0,2,17.88,22.51,22.51,0,0,0,1.14,24,22.87,22.87,0,0,0,24,46.86,22.51,22.51,0,0,0,30.12,46,11.42,11.42,0,0,0,46,30.12Z"/><path class="cls-2" d="M24.13,32.11a10.55,10.55,0,0,1-2.69-.27,5.76,5.76,0,0,1-2.52-1.25,4.4,4.4,0,0,1-1.65-3,1.43,1.43,0,0,1,.89-1.45,1.51,1.51,0,0,1,1.79.37,7.73,7.73,0,0,1,.71,1.25,3.07,3.07,0,0,0,2.82,1.89,5.25,5.25,0,0,0,2.08-.25,2.62,2.62,0,0,0,1.26-.82,1.73,1.73,0,0,0-.5-2.7,7.32,7.32,0,0,0-2.17-.73,21.36,21.36,0,0,1-4-1.18,4.83,4.83,0,0,1-1.94-1.53,3,3,0,0,1-.58-1.68,5.55,5.55,0,0,1,.08-1.41,3.76,3.76,0,0,1,1.88-2.47,7.72,7.72,0,0,1,3.57-1,10.15,10.15,0,0,1,2.81.16,5.57,5.57,0,0,1,3.41,2,2.82,2.82,0,0,1,.61,1.6,1.57,1.57,0,0,1-2.27,1.47,1.91,1.91,0,0,1-.6-.6c-.25-.34-.45-.71-.68-1.05a2.44,2.44,0,0,0-2-1.17,9.29,9.29,0,0,0-1.75.08,2.33,2.33,0,0,0-1.54.9,1.24,1.24,0,0,0,.15,1.66,4.28,4.28,0,0,0,2,.91c1.24.32,2.48.62,3.71,1a6.22,6.22,0,0,1,2.58,1.35,3.59,3.59,0,0,1,1.18,2.4,4.59,4.59,0,0,1-2.78,4.77,8.33,8.33,0,0,1-3.29.76Z"/></g></g></svg>