<svg xmlns="http://www.w3.org/2000/svg" viewBox="0 0 48 48"><defs><style>.cls-1{fill:#0e84bf;}.cls-2{fill:#fff;}</style></defs><title>Control_Telegram_Active</title><g id="Слой_2" data-name="Слой 2"><g id="Слой_1-2" data-name="Слой 1"><circle class="cls-1" cx="24" cy="24" r="24"/><path class="cls-2" d="M23.73,28.8,21.46,31a1.2,1.2,0,0,1-.94.39A.48.48,0,0,1,20,31c-.57-1.78-1.16-3.56-1.73-5.35a.41.41,0,0,0-.31-.31l-4.07-1.27a2.66,2.66,0,0,1-.59-.28.42.42,0,0,1-.07-.71,2.71,2.71,0,0,1,.79-.5l5-1.93,12.67-4.89a.9.9,0,0,1,1.33,1,15,15,0,0,1-.31,1.65L30,31.41c-.22,1-.94,1.3-1.78.68L24,29Zm-3.18,1.31h.05l0-.12c.09-1,.18-2,.26-2.95a.71.71,0,0,1,.26-.52L25.05,23l4.32-3.9a1.16,1.16,0,0,0,.18-.33,1.11,1.11,0,0,0-.4,0,1.5,1.5,0,0,0-.47.24l-9.54,6a.28.28,0,0,0-.14.4c.23.68.45,1.36.67,2C20,28.31,20.26,29.21,20.55,30.11Z"/></g></g></svg>