<svg xmlns="http://www.w3.org/2000/svg" viewBox="0 0 48 48"><defs><style>.cls-1{opacity:0;}.cls-2{fill:#ccc;}.cls-3{fill:#50a628;}</style></defs><title>Control_Whatsapp_Default</title><g id="Слой_2" data-name="Слой 2"><g id="Слой_1-2" data-name="Слой 1"><g class="cls-1"><path class="cls-2" d="M48,24A23.84,23.84,0,0,1,24.32,48a23.35,23.35,0,0,1-11.84-3.21L0,47.67,3.81,36A24.19,24.19,0,0,1,.64,24,23.85,23.85,0,0,1,24.32,0,23.84,23.84,0,0,1,48,24Z"/></g><path class="cls-2" d="M24.27,4h-.48l-.66,0h-.24l-.62,0,.1,1a17.28,17.28,0,0,1,1.9-.1V4Zm-4,.41c-.46.09-.9.2-1.35.32h-.1l-.49.15.3,1c.6-.19,1.22-.35,1.84-.48l-.2-1Zm-3.81,1.2-.15.07h-.07c-.29.13-.58.27-.86.42h0l-.05,0h-.11l-.52.28.49.88a18,18,0,0,1,1.7-.85l-.4-.92ZM13,7.57l-.22.16h-.28l0,0h0l0,0h0l0,0h0c-.21.15-.41.32-.62.48h0l-.09.08h-.26l.65.75a18.85,18.85,0,0,1,1.5-1.17L13,7.57Zm-3,2.62H9.71c-.32.36-.64.73-.93,1.11h0v0H8.7l.79.61q.59-.75,1.23-1.44L10,10.19ZM7.56,13.36c-.29.46-.55.93-.8,1.41h0l-.13.26.9.44c.28-.57.59-1.13.92-1.67l-.85-.52ZM5.8,16.94l-.21.6h0l-.21.69h0c0,.14-.07.29-.11.43l1,.25c.16-.61.35-1.22.57-1.81l-.94-.35Zm-1,3.86c-.07.42-.12.84-.16,1.27h0v0h0c0,.19,0,.37,0,.56l1,.06c0-.63.11-1.27.21-1.89l-1-.16Zm.76,3.95-1,0c0,.4,0,.8.08,1.2h0v0h0v0h.05v0h0v0h0v0h0l1-.13c-.09-.63-.14-1.26-.17-1.9Zm.52,3.76-1,.24c.1.44.23.88.36,1.32h0v0h0v0h0v0h0v0h0v0h0l.11.32.94-.33c-.2-.6-.38-1.21-.53-1.83ZM7.32,32.1l-.91.42c.14.29.28.58.43.87h0v0h0v0h0v0h0v0H7v0h.22l-.1.32.95.31.1-.32.14-.42-.22-.38c-.26-.46-.51-.94-.73-1.41Zm-.87,4.12-.62,1.9,1,.31.62-1.9-1-.31ZM5.21,40l0,.17h0l-.56,1.7,1,.31.62-1.9-1-.31Zm.61,2.26-1.46.34-.3.93,0,.16,2-.45-.22-1Zm3.9-.9-2,.45.22,1,1.95-.46-.22-1Zm3.89-.9-1.95.45.23,1,1.95-.45-.23-1Zm2.48.62-.44.9.37.17h.08c.46.21.92.4,1.39.58l.35-.94c-.59-.22-1.18-.47-1.75-.75Zm3.56,1.32-.25,1,.24.06h.07c.54.13,1.09.24,1.65.32l.14-1c-.62-.09-1.24-.22-1.85-.37Zm5.64.55q-.51,0-1,0l-.88,0,0,1h1.11c.3,0,.59,0,.88,0l-.05-1ZM29,42.38c-.61.16-1.23.29-1.85.39l.15,1c.28,0,.55-.09.82-.15h.13c.34-.08.68-.15,1-.24l-.26-1ZM32.57,41c-.56.28-1.15.54-1.73.76l.35.93.15,0h.25l.12,0h.07l.09,0h.28l.47-.21h.11l.29-.14L32.57,41Zm3.2-2c-.5.39-1,.76-1.55,1.1l.54.84a18.52,18.52,0,0,0,1.63-1.16L35.77,39Zm2.72-2.64a18.78,18.78,0,0,1-1.29,1.39l.69.72h.26l.05-.05h0q.52-.54,1-1.11l-.77-.65Zm2.15-3.13a18.93,18.93,0,0,1-1,1.62l.82.57a18.64,18.64,0,0,0,1.05-1.71l-.88-.48Zm1.49-3.49c-.19.6-.41,1.2-.66,1.78l.92.4,0-.06h0c.17-.41.33-.83.48-1.25h0c.05-.15.1-.3.14-.45l-.95-.3ZM42.89,26a16.9,16.9,0,0,1-.29,1.87l1,.21a15.51,15.51,0,0,0,.27-1.66h0l0-.23-1-.1Zm1-3.89-1,.09c0,.58.08,1.18.08,1.77v.13h1v0h0V24h0v0h0v0h0v0h0v-.06h0c0-.45,0-.9-.07-1.34Zm-.76-3.93-1,.29c.18.6.33,1.22.45,1.84l1-.18c-.08-.41-.17-.81-.27-1.21h0l-.18-.64Zm-1.51-3.69-.89.47a18,18,0,0,1,.81,1.72l.93-.38,0-.06h0c-.19-.44-.39-.87-.6-1.3h0l-.16-.32ZM39.43,11.2l-.77.63a18.86,18.86,0,0,1,1.13,1.53l.83-.56-.39-.56h0v0h0v0h0l0,0h-.1v0h-.17l0-.07h0l-.39-.49ZM36.6,8.38,36,9.16c.48.4,1,.82,1.41,1.27l.7-.71c-.47-.47-1-.92-1.48-1.34ZM33.26,6.19l-.46.89a16.58,16.58,0,0,1,1.63,1L35,7.2c-.42-.28-.86-.54-1.31-.79h-.08l-.05,0H33.3l0,0ZM29.54,4.72l-.27,1a18.08,18.08,0,0,1,1.8.6l.37-.93-.76-.28h-.07c-.35-.12-.71-.23-1.07-.33Zm-3.93-.67-.07,1c.63,0,1.27.12,1.88.23l.17-1c-.44-.07-.88-.13-1.34-.18H26.1l-.49,0Z"/><path class="cls-3" d="M18.18,15.68h.2c.67-.11,1,.25,1.22.82.41,1,.82,2,1.28,3a1.27,1.27,0,0,1-.17,1.41c-.29.38-.6.73-.91,1.1a.65.65,0,0,0-.09.9,12,12,0,0,0,6.17,5.24.64.64,0,0,0,.85-.24c.44-.52.86-1.05,1.28-1.57s.57-.53,1.1-.29c1.19.54,2.36,1.12,3.55,1.67a.68.68,0,0,1,.37.67,3.45,3.45,0,0,1-2.24,3.41,4.33,4.33,0,0,1-3.31.31c-1.38-.47-2.77-.93-4.1-1.52a12.69,12.69,0,0,1-3.91-2.91,20.13,20.13,0,0,1-3.89-5.32,5.47,5.47,0,0,1-.3-4.29A4.83,4.83,0,0,1,16.77,16,1.7,1.7,0,0,1,18.18,15.68Z"/></g></g></svg>