<svg xmlns="http://www.w3.org/2000/svg" viewBox="0 0 48 48"><defs><style>.cls-1{opacity:0;}.cls-2{fill:#ccc;}.cls-3{fill:#00aae8;}</style></defs><title>Control_Skype_Default</title><g id="Слой_2" data-name="Слой 2"><g id="Слой_1-2" data-name="Слой 1"><g class="cls-1"><path class="cls-2" d="M46,30.12A22.51,22.51,0,0,0,46.86,24,22.87,22.87,0,0,0,24,1.14,22.51,22.51,0,0,0,17.88,2,11.42,11.42,0,0,0,2,17.88,22.51,22.51,0,0,0,1.14,24,22.87,22.87,0,0,0,24,46.86,22.51,22.51,0,0,0,30.12,46,11.42,11.42,0,0,0,46,30.12Z"/></g><path class="cls-2" d="M13.52,4H12.28l-.13,0h-.51l-.1,0,.21,1A8.06,8.06,0,0,1,13.52,5V4Zm-3.88.83h0l-.05,0h0a9.58,9.58,0,0,0-1.09.59h0l0,0H8.21l-.3.21.59.8a8.52,8.52,0,0,1,1.55-.89l-.41-.91ZM6.43,7.17c-.07.07-.13.15-.2.23H6.15a10.21,10.21,0,0,0-.89,1.29l.87.5a9.22,9.22,0,0,1,1-1.45l-.75-.66Zm-2,3.44a10.61,10.61,0,0,0-.36,1.6h0v0h0c0,.05,0,.1,0,.15l1,.1a8.15,8.15,0,0,1,.37-1.75l-1-.3Zm.6,3.84-1,.11c0,.11,0,.22,0,.33h0v0h0v0h0v0h0a8.73,8.73,0,0,0,.34,1.36l.95-.31a8,8,0,0,1-.38-1.75Zm1.12,3.37-.87.51.36.57h0c-.07.27-.14.53-.2.8h0c0,.08,0,.16-.05.24l1,.2c.08-.41.18-.82.3-1.22l.12-.45-.26-.39c-.11-.16-.22-.33-.32-.51ZM5.05,22.16C5,22.57,5,23,5,23.41H5v0H5v0H5v0H5v0H5v.06H6V24A17,17,0,0,1,6,22.26l-1-.1Zm1,3.88-1,.11q.1.86.27,1.68h0c0,.07,0,.14,0,.21l1-.22A16.57,16.57,0,0,1,6.07,26Zm.81,3.7-1,.31v0H6c.2.59.42,1.16.67,1.72h0v0h0v0h0l.91-.41c-.26-.58-.5-1.17-.7-1.76Zm1.58,3.44-.87.5.2.33h0c.23.36.47.71.72,1.06h0l.15.21.8-.6a18.55,18.55,0,0,1-1-1.57Zm2.25,3-.73.68h.68l0,0h0l0,0h0c.21.21.43.41.65.61l.67-.75a17.07,17.07,0,0,1-1.36-1.33Zm2.84,2.51-.58.81h0l0,0h.05l0,0h0c.5.35,1,.67,1.55,1l.49-.87a18.77,18.77,0,0,1-1.6-1Zm3.3,1.85-.4.92c.39.17.79.33,1.19.47h0l0,0h.16l.44.15.3-1a15.65,15.65,0,0,1-1.77-.66Zm3.61,1.13-.2,1a18.51,18.51,0,0,0,2,.29l.09-1c-.63-.06-1.26-.15-1.87-.27Zm5.65.22c-.63.07-1.26.12-1.89.13l0,1,1.11,0h.33l.55-.06-.12-1Zm3.17-.67-.45.12-.85.22.22,1,.44-.1h.21l.18,0h.12a8.18,8.18,0,0,0,.7.43H30l.07,0,.47-.88a7.46,7.46,0,0,1-.82-.5l-.39-.26Zm2.86,1.43-.27,1,.27.07h.26l.2,0h0l.08,0H33c.27,0,.55.07.83.09l.07-1a8.64,8.64,0,0,1-1.76-.3Zm5.28-.2a8.59,8.59,0,0,1-1.73.43l.14,1a9.4,9.4,0,0,0,1.93-.48l-.34-.94Zm3-1.9A8.33,8.33,0,0,1,39,41.69l.54.84c.31-.2.62-.42.91-.65h0l0,0h.16c.15-.12.29-.26.43-.39l-.7-.72Zm2-2.95a8.82,8.82,0,0,1-.83,1.58l.83.55.25-.39h0l0,0h0v0h.17v0h0v0h0l0,0h0l0-.07h0c.1-.21.19-.42.28-.63l-.93-.37ZM44,34.08l-1,0c0,.12,0,.24,0,.36a8.54,8.54,0,0,1-.12,1.43l1,.16v0h0v0h0v0h0v0h0v0h0v0h0c0-.13,0-.26,0-.4h0v0h0v0h0v0h0v0h0v0h0v0h0v0h0v0h0v0h0v0h0c0-.05,0-.11,0-.16Zm-1-3.84-.89.44a7.9,7.9,0,0,1,.62,1.68l1-.25a9.11,9.11,0,0,0-.7-1.87Zm-1.11-3.9c-.09.62-.2,1.25-.35,1.87l1,.23c.12-.49.22-1,.3-1.48h0v0h0v0h0v0h0c0-.11,0-.21.05-.31l-1-.14ZM43,22.49l-1,.07q.06.72.06,1.44c0,.15,0,.31,0,.46l1,0c0-.13,0-.27,0-.41h0v0h0v0h0v0h0v0h0v0h0v0h0v0h0v0h0v0h0v0h0v0h0v0h0l0-.42Zm-.73-3.93-1,.28a17.13,17.13,0,0,1,.44,1.85l1-.19c0-.13,0-.27-.08-.4h0c-.08-.37-.17-.73-.27-1.09h0c0-.09-.05-.19-.08-.28Zm-1.54-3.69-.87.48c.3.56.57,1.13.82,1.71l.92-.38q-.18-.43-.39-.87h0v0h0l-.43-.83Zm-2.27-3.28-.76.65a18.73,18.73,0,0,1,1.16,1.5l.82-.57-.32-.45h0v0h-.09v0h0l0,0h0l0,0H39l0,0h0c-.15-.19-.31-.39-.48-.58Zm-2.9-2.74-.61.8a16.86,16.86,0,0,1,1.44,1.22l.69-.72a18.93,18.93,0,0,0-1.52-1.3ZM32.14,6.77l-.43.91a17.9,17.9,0,0,1,1.67.9l.52-.86-.37-.22H33.1l-.05,0h0l-.05,0h0l-.13-.06h0l-.67-.34ZM28.37,5.46l-.23,1A17.12,17.12,0,0,1,30,7l.33-1-.12,0h-.06a17.25,17.25,0,0,0-1.74-.49Zm-4-.5,0,1c.63,0,1.26.06,1.89.13l.12-1h-.08c-.39,0-.78-.08-1.17-.1H25l-.6,0Zm-2,.06-.37,0h-.2c-.41,0-.82.11-1.22.19h-.19l.19,1A17.68,17.68,0,0,1,22.5,6l-.09-1Zm-5.66-.46-.34.94a7.9,7.9,0,0,1,1.6.78l.53-.85-.23-.14h0l0,0h0l0,0H17.16l-.41-.16ZM13.52,4V5a8.77,8.77,0,0,1,1.15.08l.14-1c-.26,0-.52-.06-.78-.08h-.51Z"/><path class="cls-3" d="M24.13,32.11a10.55,10.55,0,0,1-2.69-.27,5.76,5.76,0,0,1-2.52-1.25,4.4,4.4,0,0,1-1.65-3,1.43,1.43,0,0,1,.89-1.45,1.51,1.51,0,0,1,1.79.37,7.73,7.73,0,0,1,.71,1.25,3.07,3.07,0,0,0,2.82,1.89,5.25,5.25,0,0,0,2.08-.25,2.62,2.62,0,0,0,1.26-.82,1.73,1.73,0,0,0-.5-2.7,7.32,7.32,0,0,0-2.17-.73,21.36,21.36,0,0,1-4-1.18,4.83,4.83,0,0,1-1.94-1.53,3,3,0,0,1-.58-1.68,5.55,5.55,0,0,1,.08-1.41,3.76,3.76,0,0,1,1.88-2.47,7.72,7.72,0,0,1,3.57-1,10.15,10.15,0,0,1,2.81.16,5.57,5.57,0,0,1,3.41,2,2.82,2.82,0,0,1,.61,1.6,1.57,1.57,0,0,1-2.27,1.47,1.91,1.91,0,0,1-.6-.6c-.25-.34-.45-.71-.68-1.05a2.44,2.44,0,0,0-2-1.17,9.29,9.29,0,0,0-1.75.08,2.33,2.33,0,0,0-1.54.9,1.24,1.24,0,0,0,.15,1.66,4.28,4.28,0,0,0,2,.91c1.24.32,2.48.62,3.71,1a6.22,6.22,0,0,1,2.58,1.35,3.59,3.59,0,0,1,1.18,2.4,4.59,4.59,0,0,1-2.78,4.77,8.33,8.33,0,0,1-3.29.76Z"/></g></g></svg>