<svg xmlns="http://www.w3.org/2000/svg" viewBox="0 0 57.74 59.36"><defs><style>.cls-1{fill:#db3837;}</style></defs><title>Advantage_1</title><g id="Layer_2" data-name="Layer 2"><g id="Слой_1" data-name="Слой 1"><path class="cls-1" d="M28.86.22h-.12a1,1,0,0,0-.92,1.05V10.2a1,1,0,1,0,2.07,0v-9A1.07,1.07,0,0,0,29.6.53a1,1,0,0,0-.72-.31V0h0Z"/><path class="cls-1" d="M6.63,14.81a1,1,0,0,0,.79-.36A1,1,0,0,0,7.31,13L1.73,8.14A1,1,0,0,0,1,7.88H1a1,1,0,0,0-.71.35A1,1,0,0,0,.37,9.71L6,14.56A1,1,0,0,0,6.63,14.81Z"/><path class="cls-1" d="M56.67,7.86l-.17,0a1,1,0,0,0-.51.25L50.4,13a1,1,0,0,0-.11,1.46,1,1,0,0,0,1.47.11l5.57-4.85a1,1,0,0,0-.63-1.85V7.65h0Z"/><path class="cls-1" d="M18.36,16.25A1,1,0,0,0,17.62,18a1.07,1.07,0,0,0,.73.32H26.5l-.75.73L19.53,25.2l-.33.33-.3-.35-7.31-8.55a1,1,0,0,0-1.46-.12l-.19.21L3.49,26.44a1,1,0,0,0,.31,1.42,1,1,0,0,0,.55.17H18.4l.1.3L26.27,52,27,54.34l-1.51-1.93L8.76,31a1,1,0,0,0-.82-.41H7.86a1,1,0,0,0-.94,1.12,1,1,0,0,0,.23.55L28.05,59a1.05,1.05,0,0,0,.81.39,1,1,0,0,0,.64-.23l.16-.16,20.42-26a1,1,0,0,0-.19-1.45,1,1,0,0,0-1.45.18l-16,20.46-1.63,2.07.88-2.48L40,28.32l.1-.29H53.36a1,1,0,0,0,1-1,1,1,0,0,0-.18-.58l-6.49-9.7a1,1,0,0,0-.86-.45l-28.49,0V16h0ZM15.94,26H6.29l.44-.67,3.87-5.81.31-.47.37.43,5,5.81.61.71Zm21.73,2.64L29.33,52.18l-.42,1.18-.39-1.19L20.77,28.6,20.58,28h17.3Zm9.11-9.55.33.5L51,25.3l.45.67h-10l.53-.7,4.44-5.73Zm-17.89-.2.3.28,3.87,3.54a1,1,0,0,0,.7.28,1,1,0,0,0,1-1.08,1,1,0,0,0-.33-.71l-2.28-2.08-.82-.75H44.75l-.53.69L39,25.8l-.13.17H21.71l.74-.74,6.15-6.08Z"/></g></g></svg>