<svg xmlns="http://www.w3.org/2000/svg" viewBox="0 0 48 60"><defs><style>.cls-1{fill:#58d283;}</style></defs><title>Advantage_2</title><g id="Layer_2" data-name="Layer 2"><g id="Слой_1" data-name="Слой 1"><path class="cls-1" d="M1,60H47a1,1,0,0,0,1-1V21a1,1,0,0,0-1-1H42V17a5,5,0,0,0-5-5H36a1,1,0,0,0-1,1v7H1a1,1,0,0,0-1,1V59A1,1,0,0,0,1,60ZM19,36.89a7,7,0,0,1,0-9.78ZM42,39V22h4V42H41A4.89,4.89,0,0,0,42,39ZM37,14a3,3,0,0,1,3,3V35a5,5,0,0,0-3-1ZM29,27.1a7,7,0,0,1,0,9.8Zm0,12.37a9,9,0,0,0,2.51-12.42A8.83,8.83,0,0,0,29,24.54V22h6V35a1,1,0,0,0,1,1h1a3,3,0,0,1,0,6H29ZM29,44H46v2H29Zm0,4H46v2H29Zm0,4H46v2H29Zm0,4H46v2H29Zm-8,0V22h6V58H21ZM2,22H5.9A5,5,0,0,1,2,25.9Zm0,5.92A7,7,0,0,0,7.92,22H19v2.54a9,9,0,0,0,0,14.92V42H8a7,7,0,0,0-6-6.92ZM2,37.1A5,5,0,0,1,6,42H2ZM2,44H19v2H2Zm0,4H19v2H2Zm0,4H19v2H2Zm0,4H19v2H2Z"/><path class="cls-1" d="M22,.83a1,1,0,0,0-2,0A3.87,3.87,0,0,1,16.83,4a1,1,0,0,0,0,2A3.88,3.88,0,0,1,20,9.16a1,1,0,0,0,2,0A3.88,3.88,0,0,1,25.17,6,1,1,0,0,0,26,4.83,1,1,0,0,0,25.17,4,3.87,3.87,0,0,1,22,.83Zm-1,5.6A5.72,5.72,0,0,0,19.57,5,5.72,5.72,0,0,0,21,3.57,5.72,5.72,0,0,0,22.43,5,5.72,5.72,0,0,0,21,6.43Z"/><polygon class="cls-1" points="7 17 7 14 10 14 10 12 7 12 7 9 5 9 5 12 2 12 2 14 5 14 5 17 7 17"/><polygon class="cls-1" points="45 13 45 10 48 10 48 8 45 8 45 5 43 5 43 8 40 8 40 10 43 10 43 13 45 13"/><rect class="cls-1" x="8" y="31" width="4" height="2"/></g></g></svg>