<svg xmlns="http://www.w3.org/2000/svg" viewBox="0 0 59 62.63"><defs><style>.cls-1{fill:#467bf4;}</style></defs><title>Advantage_3</title><g id="Layer_2" data-name="Layer 2"><g id="Слой_1" data-name="Слой 1"><path class="cls-1" d="M51,18.35l1,2,.23.44.5.08,2.24.38L53.43,22.9l-.35.35.07.5L53.49,26l-2-1L51,24.76l-.45.22-2,1,.34-2.25.07-.5-.35-.35L47,21.27l2.24-.38.5-.08.23-.44,1-2m0-2.16-1.94,3.72-4.14.69,2.94,3-.62,4.15L51,25.88l3.76,1.87-.62-4.15,2.94-3-4.14-.69Z"/><path class="cls-1" d="M7.94,18.34l1,2,.23.44.49.08,2.25.38-1.6,1.63-.35.35.08.5L10.42,26l-2-1-.44-.23L7.49,25l-2,1,.33-2.25.08-.5-.35-.35-1.6-1.63,2.25-.38.49-.08.23-.44,1.06-2m0-2.17L6,19.9l-4.15.69,2.95,3-.62,4.15,3.76-1.87,3.75,1.87-.61-4.15,2.94-3L9.88,19.9Z"/><path class="cls-1" d="M29,0h-.75c-.42,0-.83.06-1.24.12l.28,2A12.18,12.18,0,0,1,29,2ZM25.05.56l-.15,0h-.41l-.06,0-.89.34h0l0,0H23.3l-.12.05L24,3.08a11.53,11.53,0,0,1,1.61-.6ZM21.43,2.22l-.11.07h0l0,0H21l-.34.24h0l0,0h0l0,0h-.35l-.46.38,1.31,1.51a12.57,12.57,0,0,1,1.37-1Zm-3,2.61,0,0h0l0,0h0V5h0V5h-.22v0h0v0H17.8v0h0v0h0l0,0h0l0,0h0v0h0c-.18.24-.34.48-.5.72L18.9,7.52a12.37,12.37,0,0,1,1-1.38ZM16.26,8.19l-.12.26h0v0h0v0h0v0h-.25v0h0v0h0v0h0v0h0v0l-.08.24,0,.05h0v0h0v0h0v0h0v0h-.07v0h0l0,.08,1.92.56a11.9,11.9,0,0,1,.6-1.6ZM15.14,12l0,.22h0v0h0v0h0v0h0v0h0v0h0v0h0v0h0v0h0v0h0v0H15v0h0v0h0v0h0v0h2a12.18,12.18,0,0,1,.12-1.71Zm2,3.71-2,.28,0,.15h0v0h0v0h0c.08.42.16.83.27,1.24h0v0h0v0h0v0h0l.06.21,1.91-.56A12.13,12.13,0,0,1,17.12,15.72Zm1,3.27-1.81.83c.07.17.15.33.23.49h0v0h0v0h0v0h.15v0h0v0h0v0h0v0c.13.23.26.45.4.67h0l0,0h0l1.68-1.09A12.17,12.17,0,0,1,18.08,19Zm1.86,2.87-1.51,1.32a3.58,3.58,0,0,0,.26.29h.21c.11.12.23.24.35.35h0l0,0h.09v0h.16l.31.28,1.31-1.51A12.66,12.66,0,0,1,19.94,21.86Zm2.58,2.24-1.08,1.68h.45a12.34,12.34,0,0,0,1.3.68L24,24.92A11.53,11.53,0,0,1,22.52,24.1Zm3.11,1.42-.56,1.92h.31a14.42,14.42,0,0,0,1.64.33l.28-2A11.52,11.52,0,0,1,25.63,25.52Zm5.09.36A12.18,12.18,0,0,1,29,26v2h.46c.52,0,1-.06,1.54-.13Zm3.28-1a11.53,11.53,0,0,1-1.61.6L33,27.43l.3-.09h.19a13.67,13.67,0,0,0,1.38-.55Zm2.87-1.85a11.4,11.4,0,0,1-1.37,1l1.08,1.68h.33v0h.53v0h0l0,0h0v0h0l0,0h0l0,0h0l.33-.27h0l0,0h0l0,0h0l0,0h.19Zm2.24-2.59a12.69,12.69,0,0,1-1,1.38l1.51,1.31a14.2,14.2,0,0,0,1.2-1.6Zm1.41-3.1a13.37,13.37,0,0,1-.59,1.6l1.82.83c.08-.19.17-.39.25-.59h0v0h0v0h0v0h0v0h0v0h.12v0h0v0h0v0h0v0h0v0h0v0h0v0h0v0h0v0h.09v0h0v0h0ZM43,14H41a12,12,0,0,1-.12,1.7l2,.27c0-.23.06-.47.08-.72v-.09h0v0h0v-.05h0v0h0v0h0v0h0v0h0v0h0v0h0v0h0v0h0v0h0v0h0v0h0v0h0v0h0v0h0v0h0v0h0v0h0v0h0v0h0Zm-.57-4-1.92.56a12.16,12.16,0,0,1,.37,1.67l2-.28v-.07h0v0h0v0h0c-.08-.46-.18-.91-.29-1.35h0v0h0ZM40.77,6.41,39.09,7.5A12.1,12.1,0,0,1,39.91,9l1.82-.84c-.12-.25-.24-.5-.37-.75l0,0h0v0h0v0h0v0h-.38v0h0Zm-2.62-3L36.84,4.92a12.66,12.66,0,0,1,1.22,1.21l1.51-1.31h-.12v0h0v0h0l0,0h0l0,0L39,4.16h0l-.05,0h0l0,0h0l0,0h0l0,0h0l0,0h0l0,0h0l0,0h0l0,0,0,0h0l0,0h0l0,0h0l0,0h0l0,0h0l0,0h0l0,0H38.5l0,0h0l0,0h0l0,0h0l0,0h0l0,0h0l0,0,0,0h0l0,0h0l-.06,0h0ZM34.8,1.25,34,3.07a12.86,12.86,0,0,1,1.5.82l1.08-1.68c-.39-.25-.8-.49-1.21-.7H35ZM31,.14l-.28,2a11.82,11.82,0,0,1,1.67.36L32.92.56,32.2.37H31.14Z"/><path class="cls-1" d="M29,8.23l1.78,3.4.23.44.49.09,3.79.63L32.6,15.54l-.35.35.07.5.57,3.8-3.44-1.71L29,18.25l-.45.23-3.44,1.71.57-3.8.07-.5-.35-.35-2.69-2.75,3.79-.63.49-.09.23-.44L29,8.23m0-2.17-2.66,5.11-5.69,1,4,4.11-.85,5.7L29,19.37l5.16,2.57-.85-5.7,4-4.11-5.69-1Z"/><path class="cls-1" d="M51.19,41.63A6.82,6.82,0,0,1,58,48.44v9.19H44V48.44a6.82,6.82,0,0,1,6.81-6.81h.38m0-1h-.38A7.81,7.81,0,0,0,43,48.44V58.63H59V48.44A7.81,7.81,0,0,0,51.19,40.63Z"/><path class="cls-1" d="M51,32.63a4,4,0,1,1-4,4,4,4,0,0,1,4-4m0-1a5,5,0,1,0,5,5A5,5,0,0,0,51,31.63Z"/><polygon class="cls-1" points="51 43.23 53.22 45.44 51 53.66 48.78 45.44 51 43.23"/><path class="cls-1" d="M51,34.34c2.46,0,4.46,1.08,4.46,2.42l.49-.6a5,5,0,0,0-10,.47l0,.25.51-.12C46.54,35.42,48.54,34.34,51,34.34Z"/><path class="cls-1" d="M8.19,41.63A6.82,6.82,0,0,1,15,48.44v9.19H1V48.44a6.82,6.82,0,0,1,6.81-6.81h.38m0-1H7.81A7.81,7.81,0,0,0,0,48.44V58.63H16V48.44A7.81,7.81,0,0,0,8.19,40.63Z"/><path class="cls-1" d="M8,32.63a4,4,0,1,1-4,4,4,4,0,0,1,4-4m0-1a5,5,0,1,0,5,5A5,5,0,0,0,8,31.63Z"/><polygon class="cls-1" points="8 43.23 10.21 45.44 8 53.66 5.79 45.44 8 43.23"/><path class="cls-1" d="M8,34.34c2.46,0,4.46,1.08,4.46,2.42l.49-.6A5,5,0,0,0,3,36.63l0,.25.51-.12C3.54,35.42,5.54,34.34,8,34.34Z"/><path class="cls-1" d="M30.19,42.63A6.82,6.82,0,0,1,37,49.44V61.63H20V49.44a6.82,6.82,0,0,1,6.81-6.81h3.38m0-1H26.81A7.81,7.81,0,0,0,19,49.44V62.63H38V49.44A7.81,7.81,0,0,0,30.19,41.63Z"/><path class="cls-1" d="M29,32.63a5,5,0,1,1-5,5,5,5,0,0,1,5-5m0-1a6,6,0,1,0,6,6A6,6,0,0,0,29,31.63Z"/><polygon class="cls-1" points="29 45.1 31.57 47.68 29 57.22 26.43 47.68 29 45.1"/><path class="cls-1" d="M29,34.78c2.86,0,5.18,1.25,5.18,2.81l.57-.7a5.79,5.79,0,0,0-11.56.55c0,.1,0,.19,0,.29l.6-.14C23.82,36,26.14,34.78,29,34.78Z"/></g></g></svg>