<svg xmlns="http://www.w3.org/2000/svg" viewBox="0 0 64 63.67"><defs><style>.cls-1{fill:#f36c2e;}</style></defs><title>Advantage_4</title><g id="Layer_2" data-name="Layer 2"><g id="Слой_1" data-name="Слой 1"><path class="cls-1" d="M45.33,31.17H44V22a1.34,1.34,0,0,0-2.44-.76L34.4,31.76a1.32,1.32,0,0,0-.08,1.37,1.35,1.35,0,0,0,1.18.72h5.85v2.48a1.34,1.34,0,0,0,2.68,0V33.85h1.3a1.34,1.34,0,1,0,0-2.68Zm-4,0H38l3.31-4.85Z"/><path class="cls-1" d="M33,35H27.54l4.4-5.24,0,0c2.67-3.52,1.62-5.95,1.05-6.83a5.4,5.4,0,0,0-5.75-2,5.13,5.13,0,0,0-3.94,4.67,1.34,1.34,0,0,0,2.66.27,2.48,2.48,0,0,1,1.92-2.34,2.77,2.77,0,0,1,2.87.9c.56.87.24,2.19-.92,3.72l-6.22,7.4a1.36,1.36,0,0,0-.19,1.43,1.33,1.33,0,0,0,1.21.77H33A1.34,1.34,0,1,0,33,35Z"/><path class="cls-1" d="M34.39,2h0l-.76,0A27.19,27.19,0,0,0,21.19,5.68,27,27,0,0,1,34.39,2m1.33,0A27,27,0,0,1,53.57,9.49h0L53,9A27.18,27.18,0,0,0,36.51,2.06l-.79,0h0m18.79,8.42A27,27,0,0,1,62,28.26l-.05-.77A27.18,27.18,0,0,0,55,11l-.52-.58h0M12.75,13.36a27.06,27.06,0,0,0-3,5.51l-.25.47.71-1.56a27.14,27.14,0,0,1,2.58-4.42M6.69,18.55a1.64,1.64,0,0,1,.76.18l1.83.93-.27.5,1.05,1.06,4.24,4.23a1.59,1.59,0,0,1,.15,2l0,0v0l-2.67,3.85-.6.87.38,1c.48,1.25,2.21,4.26,8.39,10.43s9.17,7.89,10.42,8.37l1,.39.88-.61,3.84-2.66h0l0,0a1.55,1.55,0,0,1,.93-.31,1.59,1.59,0,0,1,1.11.46l4.63,4.64.94.93,1.22-.49a27.81,27.81,0,0,0,5-2.59A28.49,28.49,0,0,1,46,53.92l-1.65.74L45,56.38A1.94,1.94,0,0,1,45,57a1.71,1.71,0,0,1-.68,1.24L42.2,59.9l0,0,0,0a7.6,7.6,0,0,1-5,1.71c-3.05,0-6.75-1.35-11-4A66.54,66.54,0,0,1,15,48.59c-5-5-8.88-10.19-11-14.7a18.4,18.4,0,0,1-2-6.95A8.06,8.06,0,0,1,3.69,21.4l1.64-2.17a1.66,1.66,0,0,1,1.36-.68M62,29.61a27.09,27.09,0,0,1-2.81,11.6A27.17,27.17,0,0,0,62,30.37l0-.76M34.84,0A29.18,29.18,0,0,0,8.36,17,3.69,3.69,0,0,0,3.74,18L2.09,20.19A10,10,0,0,0,0,27a20.3,20.3,0,0,0,2.16,7.73C4.41,39.46,8.47,44.88,13.59,50a68,68,0,0,0,11.5,9.36c4.55,2.86,8.61,4.31,12,4.31a9.49,9.49,0,0,0,6.28-2.18l2.16-1.64A3.69,3.69,0,0,0,47,57.16a3.75,3.75,0,0,0-.18-1.42A29.16,29.16,0,0,0,34.84,0ZM19.56,14.79a1.33,1.33,0,0,0,.94-.39,1.34,1.34,0,0,0,0-1.89l-2.26-2.27A25.07,25.07,0,0,1,33.72,4v3a1.34,1.34,0,1,0,2.67,0v-3a25,25,0,0,1,15.25,6.41l-2,2a1.34,1.34,0,0,0,.94,2.28,1.37,1.37,0,0,0,1-.39l2-2a25,25,0,0,1,6.41,15.25H57a1.34,1.34,0,0,0,0,2.68h3a25,25,0,0,1-6.2,15.48L51.5,43.5a1.35,1.35,0,0,0-1-.39,1.34,1.34,0,0,0-.94,2.28l2.28,2.29a25.45,25.45,0,0,1-7.7,4.84l-4.64-4.64a3.55,3.55,0,0,0-4.64-.35l-3.84,2.66c-.83-.32-3.58-1.76-9.74-7.93s-7.62-8.92-7.93-9.73l2.66-3.85A3.59,3.59,0,0,0,15.71,24L11.48,19.8l.07-.16a25.22,25.22,0,0,1,4.78-7.53l2.28,2.29A1.33,1.33,0,0,0,19.56,14.79Z"/></g></g></svg>