<svg xmlns="http://www.w3.org/2000/svg" viewBox="0 0 65.26 61.94"><defs><style>.cls-1{fill:#7f7eff;}</style></defs><title>Advantage_5</title><g id="Layer_2" data-name="Layer 2"><g id="Слой_1" data-name="Слой 1"><circle class="cls-1" cx="44.36" cy="11.75" r="4.52"/><path class="cls-1" d="M15.88,10.85A2.25,2.25,0,0,0,18,9.34a5.42,5.42,0,0,0,7.51,0,2.26,2.26,0,1,0,2.12-3,2.35,2.35,0,0,0-.54.07,6.14,6.14,0,0,0,.09-1,5.43,5.43,0,1,0-10.85,0,5.18,5.18,0,0,0,.09,1,2.35,2.35,0,0,0-.54-.07,2.26,2.26,0,0,0,0,4.52Z"/><path class="cls-1" d="M48,31.65l.91-8.14,2.28,8.59h0a1.12,1.12,0,0,0,1.09.9,1.13,1.13,0,0,0,1.13-1.13l0-.09h0s-.91-7.67-1.81-10.07c-.75-2-2.71-4.52-7.23-4.52s-7.24,4.52-7.24,4.52L33.4,26.64,30.8,19c-.39-.92-.91-7.24-9-7.24s-8.66,6.32-9,7.24l-3.05,9,0,.12,0,.1h0a1.65,1.65,0,0,0,0,.32,1.35,1.35,0,0,0,2.62.47h0l5.06-10L13.62,35.26h2.71l.9,13.11a1.36,1.36,0,0,0,2.72,0l.9-13.11h1.81l.9,13.11a1.36,1.36,0,1,0,2.71,0l.91-13.11h2.71L26.27,19l5.06,10h0a1.35,1.35,0,0,0,2.26.44h0l6.24-5.89.9,8.14L39,47.54a1.58,1.58,0,0,0,0,.38,1.81,1.81,0,1,0,3.62,0l1.81-13.56,1.81,13.56a1.81,1.81,0,1,0,3.61,0,1.58,1.58,0,0,0,0-.38Z"/><path class="cls-1" d="M63.26,47.87v.07a5.24,5.24,0,0,1-1.15,3.16l1.62,1.19a7.4,7.4,0,0,0,1.53-4.35v-.11l-2,0Zm-3.93-5.69a11.66,11.66,0,0,1,2.73,2.54l1.6-1.2a13.91,13.91,0,0,0-3.19-3l-1.14,1.64Zm-7.06-3.37A34.41,34.41,0,0,1,56,40.27l.84-1.82a36.91,36.91,0,0,0-3.88-1.53l-.64,1.89Zm-7.74-1.89c1.36.23,2.67.5,3.92.8l.47-1.94c-1.3-.32-2.65-.6-4.05-.83l-.34,2Zm-8-.87c1.36.07,2.7.18,4,.32l.21-2c-1.34-.14-2.71-.25-4.11-.32l-.1,2Zm-8,0c1.31-.07,2.65-.11,4-.11V34c-1.4,0-2.77,0-4.12.11l.11,2Zm-8,.88c1.28-.22,2.61-.41,4-.55l-.22-2q-2.1.23-4.08.57l.33,2Zm-7.73,1.92c1.2-.41,2.48-.78,3.82-1.11l-.47-1.94c-1.4.34-2.73.73-4,1.15l.64,1.9Zm-7,3.4a23.26,23.26,0,0,1,3.36-1.94l-.85-1.8a23.58,23.58,0,0,0-3.67,2.11l1.16,1.63ZM2,48v0a5.26,5.26,0,0,1,1.12-3.12L1.5,43.65A7.26,7.26,0,0,0,0,47.94V48Zm3.89,5.7a11.6,11.6,0,0,1-2.72-2.54L1.56,52.33a13.67,13.67,0,0,0,3.18,3Zm7.05,3.38A32.25,32.25,0,0,1,9.27,55.6l-.85,1.82A40.21,40.21,0,0,0,12.3,59ZM20.68,59c-1.36-.23-2.67-.5-3.91-.8l-.48,1.94q2,.48,4.05.84l.34-2Zm8,.87c-1.36-.07-2.7-.17-4-.32l-.21,2q2,.22,4.11.33l.1-2Zm8,0c-1.31.07-2.65.11-4,.11v2c1.4,0,2.77,0,4.12-.11l-.11-2Zm8-.87c-1.28.22-2.61.4-4,.55l.22,2q2.1-.24,4.08-.57Zm7.73-1.91c-1.2.4-2.47.77-3.82,1.1L49,60.09c1.4-.34,2.73-.73,4-1.15L52.36,57Zm7-3.39A22.86,22.86,0,0,1,56,55.58l.85,1.81a24.15,24.15,0,0,0,3.68-2.1Z"/></g></g></svg>