<svg xmlns="http://www.w3.org/2000/svg" viewBox="0 0 60 60"><defs><style>.cls-1{fill:#e77eff;}</style></defs><title>Advantage_6</title><g id="Layer_2" data-name="Layer 2"><g id="Слой_1" data-name="Слой 1"><path class="cls-1" d="M29.15,1.49c2.66,1.46,5.07,5.19,6.7,10.38-2.22.25-4.47.4-6.7.47V1.49m-5,0V12.34c-2.23-.07-4.48-.22-6.7-.47C19.11,6.68,21.53,3,24.18,1.49m-7.7.8a31.89,31.89,0,0,0-4,8.83A41.94,41.94,0,0,1,6.76,9.63a26,26,0,0,1,9.72-7.34m20.37,0a25.91,25.91,0,0,1,9.72,7.34,41.94,41.94,0,0,1-5.73,1.49,31.61,31.61,0,0,0-4-8.83M3.93,13.9A46.47,46.47,0,0,0,11.36,16a54.62,54.62,0,0,0-.82,7.44H1.08a25.77,25.77,0,0,1,2.85-9.5m45.47,0a25.58,25.58,0,0,1,2.85,9.5H42.79A54.6,54.6,0,0,0,42,16,46.65,46.65,0,0,0,49.4,13.9M16.29,16.72c2.61.32,5.26.51,7.89.58v6.1H15.52a48.28,48.28,0,0,1,.77-6.68m20.76,0a49.85,49.85,0,0,1,.76,6.68H29.15V17.3c2.63-.07,5.28-.26,7.9-.58M24.18,28.36v6.1c-2.63.07-5.28.26-7.89.58a48.28,48.28,0,0,1-.77-6.68h8.66m-13.64,0a54.44,54.44,0,0,0,.82,7.44,45.48,45.48,0,0,0-7.43,2.07,25.76,25.76,0,0,1-2.85-9.51h9.46m41.72,0a25.11,25.11,0,0,1-.94,4.78l-8.67-2.54c.06-.76.11-1.51.14-2.24h9.47m-14.44,0c0,.26,0,.53,0,.81L35,28.37h2.82m-8.12,0a4.36,4.36,0,0,0-.55.41v-.41h.55M24.18,39.43V50.28c-2.65-1.47-5.07-5.19-6.7-10.38,2.22-.25,4.47-.41,6.7-.47m5,0h.52l2.4,8.18a10,10,0,0,1-2.92,2.65V39.43M12.49,40.64a31.89,31.89,0,0,0,4,8.83,26,26,0,0,1-9.72-7.34,41.94,41.94,0,0,1,5.73-1.49M28.15,0V13.36a82.15,82.15,0,0,0,9-.64C35.24,5.93,31.93,1,28.15,0Zm-3,0c-3.78,1-7.08,5.93-9,12.72a81.79,81.79,0,0,0,9,.64Zm8.65.15c2.7,2.71,4.89,6.93,6.3,12.11a42.81,42.81,0,0,0,8.08-2.15A26.87,26.87,0,0,0,33.83.15ZM19.51.15a26.79,26.79,0,0,0-14.38,10,42.41,42.41,0,0,0,8.08,2.15C14.61,7.08,16.81,2.86,19.51.15Zm30.35,12.5h0a44.68,44.68,0,0,1-9,2.5,54.21,54.21,0,0,1,1,9.25H53.33A26.41,26.41,0,0,0,49.86,12.65Zm-46.38,0A26.55,26.55,0,0,0,0,24.4H11.51a53.23,53.23,0,0,1,1-9.25A44.32,44.32,0,0,1,3.48,12.65Zm34.37,3a83,83,0,0,1-9.7.72V24.4h10.7A49.94,49.94,0,0,0,37.85,15.61Zm-22.37,0a50.9,50.9,0,0,0-1,8.79h10.7V16.33A83,83,0,0,1,15.48,15.61Zm9.7,11.75H14.48a50.79,50.79,0,0,0,1,8.79,83,83,0,0,1,9.7-.71Zm-13.67,0H0A26.55,26.55,0,0,0,3.48,39.11a45,45,0,0,1,9-2.5A53.23,53.23,0,0,1,11.51,27.36Zm41.82,0H41.83c0,1.35-.12,2.68-.25,4L52,34.39A26.28,26.28,0,0,0,53.33,27.37Zm-14.48,0H28.15v8.06l1.4,0L28.82,33a3.36,3.36,0,0,1,2.28-4.17,3.28,3.28,0,0,1,.94-.13,3.4,3.4,0,0,1,1,.13l5.68,1.67C38.76,29.47,38.83,28.43,38.85,27.37Zm-13.67,11a81.79,81.79,0,0,0-9,.64c1.91,6.8,5.21,11.69,9,12.72Zm3,0V51.76a9.65,9.65,0,0,0,5-3.95l-2.74-9.34C29.67,38.44,28.92,38.42,28.15,38.41ZM13.21,39.5a42.41,42.41,0,0,0-8.08,2.15,26.79,26.79,0,0,0,14.38,10C16.81,48.9,14.61,44.68,13.21,39.5Z"/><path class="cls-1" d="M51,45l8-4.6a.69.69,0,0,0,.25-.94.67.67,0,0,0-.4-.32L32.24,31.38a.69.69,0,0,0-.86.47.65.65,0,0,0,0,.39l7.79,26.58a.68.68,0,0,0,.85.46.71.71,0,0,0,.41-.31L45,51l8.77,8.75a.85.85,0,0,0,1.23,0L59.74,55a.87.87,0,0,0,0-1.23Z"/></g></g></svg>